<svg id="visual" viewBox="0 0 900 600" width="900" height="600" xmlns="http://www.w3.org/2000/svg" xmlns:xlink="http://www.w3.org/1999/xlink" version="1.1"><g stroke-width="0.5" stroke-linejoin="bevel"><path d="M446 291L452 304.1L450 277.3Z" fill="#2a2a2a" stroke="#323232"></path><path d="M481 247L464 248.1L450 277.3Z" fill="#2a2a2a" stroke="#323232"></path><path d="M452 304.1L502 317.1L450 277.3Z" fill="#2a2a2a" stroke="#323232"></path><path d="M488 327.9L502 317.1L452 304.1Z" fill="#2a2a2a" stroke="#323232"></path><path d="M502 317.1L481 247L450 277.3Z" fill="#2a2a2a" stroke="#323232"></path><path d="M502 317.1L529 268.3L481 247Z" fill="#2a2a2a" stroke="#323232"></path><path d="M481 247L474 218.4L464 248.1Z" fill="#2a2a2a" stroke="#323232"></path><path d="M383 281.9L385 288L450 277.3Z" fill="#2a2a2a" stroke="#323232"></path><path d="M506 191.4L474 218.4L481 247Z" fill="#2a2a2a" stroke="#323232"></path><path d="M472 367.9L484 365.9L488 327.9Z" fill="#2a2a2a" stroke="#323232"></path><path d="M488 327.9L523 345L502 317.1Z" fill="#2a2a2a" stroke="#323232"></path><path d="M502 317.1L543 312.1L529 268.3Z" fill="#2a2a2a" stroke="#323232"></path><path d="M458 391.6L472 367.9L439 397.7Z" fill="#2a2a2a" stroke="#323232"></path><path d="M452 304.1L472 367.9L488 327.9Z" fill="#2a2a2a" stroke="#323232"></path><path d="M484 365.9L523 345L488 327.9Z" fill="#2a2a2a" stroke="#323232"></path><path d="M523 345L543 312.1L502 317.1Z" fill="#2a2a2a" stroke="#323232"></path><path d="M383 281.9L450 277.3L389 237.3Z" fill="#2a2a2a" stroke="#323232"></path><path d="M450 277.3L385 288L446 291Z" fill="#2a2a2a" stroke="#323232"></path><path d="M446 291L385 288L452 304.1Z" fill="#2a2a2a" stroke="#323232"></path><path d="M555 300.1L537 246L529 268.3Z" fill="#2a2a2a" stroke="#323232"></path><path d="M529 268.3L537 246L481 247Z" fill="#2a2a2a" stroke="#323232"></path><path d="M389 237.3L450 277.3L464 248.1Z" fill="#2a2a2a" stroke="#323232"></path><path d="M632 309.9L555 300.1L620 374.7Z" fill="#2a2a2a" stroke="#323232"></path><path d="M543 312.1L555 300.1L529 268.3Z" fill="#2a2a2a" stroke="#323232"></path><path d="M484 365.9L516 367.7L523 345Z" fill="#2a2a2a" stroke="#323232"></path><path d="M523 345L620 374.7L543 312.1Z" fill="#2a2a2a" stroke="#323232"></path><path d="M493 418.6L516 367.7L484 365.9Z" fill="#2a2a2a" stroke="#323232"></path><path d="M442 190.3L389 237.3L464 248.1Z" fill="#2a2a2a" stroke="#323232"></path><path d="M506 191.4L442 190.3L474 218.4Z" fill="#2a2a2a" stroke="#323232"></path><path d="M474 218.4L442 190.3L464 248.1Z" fill="#2a2a2a" stroke="#323232"></path><path d="M439 397.7L472 367.9L452 304.1Z" fill="#2a2a2a" stroke="#323232"></path><path d="M472 367.9L458 391.6L484 365.9Z" fill="#2a2a2a" stroke="#323232"></path><path d="M537 246L506 191.4L481 247Z" fill="#2a2a2a" stroke="#323232"></path><path d="M537 246L508 189.6L506 191.4Z" fill="#2a2a2a" stroke="#323232"></path><path d="M459 142.7L444 150.4L442 190.3Z" fill="#2a2a2a" stroke="#323232"></path><path d="M385 288L439 397.7L452 304.1Z" fill="#2a2a2a" stroke="#323232"></path><path d="M442 190.3L401 198.3L389 237.3Z" fill="#2a2a2a" stroke="#323232"></path><path d="M383 281.9L354 307L385 288Z" fill="#2a2a2a" stroke="#323232"></path><path d="M385 288L354 307L439 397.7Z" fill="#2a2a2a" stroke="#323232"></path><path d="M358 247.3L354 307L383 281.9Z" fill="#2a2a2a" stroke="#323232"></path><path d="M358 247.3L383 281.9L389 237.3Z" fill="#2a2a2a" stroke="#323232"></path><path d="M354 184.6L358 247.3L389 237.3Z" fill="#2a2a2a" stroke="#323232"></path><path d="M555 300.1L578 221.3L537 246Z" fill="#2a2a2a" stroke="#323232"></path><path d="M537 246L578 221.3L508 189.6Z" fill="#2a2a2a" stroke="#323232"></path><path d="M439 397.7L493 418.6L458 391.6Z" fill="#2a2a2a" stroke="#323232"></path><path d="M458 391.6L493 418.6L484 365.9Z" fill="#2a2a2a" stroke="#323232"></path><path d="M516 367.7L572 409.6L523 345Z" fill="#2a2a2a" stroke="#323232"></path><path d="M358 247.3L333 309L354 307Z" fill="#2a2a2a" stroke="#323232"></path><path d="M354 307L384 411.7L439 397.7Z" fill="#2a2a2a" stroke="#323232"></path><path d="M641 252L586 218.1L578 221.3Z" fill="#2a2a2a" stroke="#323232"></path><path d="M578 221.3L541 150.6L508 189.6Z" fill="#2a2a2a" stroke="#323232"></path><path d="M459 142.7L442 190.3L506 191.4Z" fill="#2a2a2a" stroke="#323232"></path><path d="M442 190.3L444 150.4L401 198.3Z" fill="#2a2a2a" stroke="#323232"></path><path d="M459 142.7L506 191.4L508 189.6Z" fill="#2a2a2a" stroke="#323232"></path><path d="M541 150.6L459 142.7L508 189.6Z" fill="#2a2a2a" stroke="#323232"></path><path d="M353 419.7L384 411.7L303 355.9Z" fill="#2a2a2a" stroke="#323232"></path><path d="M439 397.7L445 473.3L493 418.6Z" fill="#2a2a2a" stroke="#323232"></path><path d="M493 418.6L550 411.4L516 367.7Z" fill="#2a2a2a" stroke="#323232"></path><path d="M555 300.1L641 252L578 221.3Z" fill="#2a2a2a" stroke="#323232"></path><path d="M359 148.6L354 184.6L401 198.3Z" fill="#2a2a2a" stroke="#323232"></path><path d="M401 198.3L354 184.6L389 237.3Z" fill="#2a2a2a" stroke="#323232"></path><path d="M358 247.3L296 298.9L333 309Z" fill="#2a2a2a" stroke="#323232"></path><path d="M359 148.6L401 198.3L444 150.4Z" fill="#2a2a2a" stroke="#323232"></path><path d="M582 157.3L541 150.6L578 221.3Z" fill="#2a2a2a" stroke="#323232"></path><path d="M569 441.4L572 409.6L550 411.4Z" fill="#2a2a2a" stroke="#323232"></path><path d="M550 411.4L572 409.6L516 367.7Z" fill="#2a2a2a" stroke="#323232"></path><path d="M354 184.6L320 215.4L358 247.3Z" fill="#2a2a2a" stroke="#323232"></path><path d="M353 419.7L385 432.7L384 411.7Z" fill="#2a2a2a" stroke="#323232"></path><path d="M384 411.7L385 432.7L439 397.7Z" fill="#2a2a2a" stroke="#323232"></path><path d="M493 418.6L528 448.7L550 411.4Z" fill="#2a2a2a" stroke="#323232"></path><path d="M620 374.7L555 300.1L543 312.1Z" fill="#2a2a2a" stroke="#323232"></path><path d="M296 298.9L301 318.1L333 309Z" fill="#2a2a2a" stroke="#323232"></path><path d="M303 355.9L384 411.7L354 307Z" fill="#2a2a2a" stroke="#323232"></path><path d="M496 473.6L528 448.7L493 418.6Z" fill="#2a2a2a" stroke="#323232"></path><path d="M320 215.4L296 298.9L358 247.3Z" fill="#2a2a2a" stroke="#323232"></path><path d="M265 340.7L300 329.9L301 318.1Z" fill="#2a2a2a" stroke="#323232"></path><path d="M301 318.1L300 329.9L333 309Z" fill="#2a2a2a" stroke="#323232"></path><path d="M303 355.9L354 307L333 309Z" fill="#2a2a2a" stroke="#323232"></path><path d="M615 383.9L523 345L572 409.6Z" fill="#2a2a2a" stroke="#323232"></path><path d="M615 383.9L620 374.7L523 345Z" fill="#2a2a2a" stroke="#323232"></path><path d="M586 218.1L582 157.3L578 221.3Z" fill="#2a2a2a" stroke="#323232"></path><path d="M641 136.4L582 157.3L586 218.1Z" fill="#2a2a2a" stroke="#323232"></path><path d="M597 413.7L615 383.9L572 409.6Z" fill="#2a2a2a" stroke="#323232"></path><path d="M297 351L303 355.9L300 329.9Z" fill="#2a2a2a" stroke="#323232"></path><path d="M300 329.9L303 355.9L333 309Z" fill="#2a2a2a" stroke="#323232"></path><path d="M357 144.7L359 148.6L411 109.4Z" fill="#2a2a2a" stroke="#323232"></path><path d="M354 184.6L317 184.6L320 215.4Z" fill="#2a2a2a" stroke="#323232"></path><path d="M632 309.9L641 252L555 300.1Z" fill="#2a2a2a" stroke="#323232"></path><path d="M569 441.4L597 413.7L572 409.6Z" fill="#2a2a2a" stroke="#323232"></path><path d="M265 340.7L297 351L300 329.9Z" fill="#2a2a2a" stroke="#323232"></path><path d="M303 355.9L298 402.6L353 419.7Z" fill="#2a2a2a" stroke="#323232"></path><path d="M411 109.4L359 148.6L444 150.4Z" fill="#2a2a2a" stroke="#323232"></path><path d="M359 148.6L317 184.6L354 184.6Z" fill="#2a2a2a" stroke="#323232"></path><path d="M357 144.7L317 184.6L359 148.6Z" fill="#2a2a2a" stroke="#323232"></path><path d="M320 215.4L246 255L296 298.9Z" fill="#2a2a2a" stroke="#323232"></path><path d="M528 448.7L569 441.4L550 411.4Z" fill="#2a2a2a" stroke="#323232"></path><path d="M397 504.1L445 473.3L385 432.7Z" fill="#2a2a2a" stroke="#323232"></path><path d="M385 432.7L445 473.3L439 397.7Z" fill="#2a2a2a" stroke="#323232"></path><path d="M528 448.7L549 479.6L569 441.4Z" fill="#2a2a2a" stroke="#323232"></path><path d="M445 473.3L496 473.6L493 418.6Z" fill="#2a2a2a" stroke="#323232"></path><path d="M454 89.6L411 109.4L459 142.7Z" fill="#2a2a2a" stroke="#323232"></path><path d="M459 142.7L411 109.4L444 150.4Z" fill="#2a2a2a" stroke="#323232"></path><path d="M519 99.9L459 142.7L541 150.6Z" fill="#2a2a2a" stroke="#323232"></path><path d="M602 109.6L567 129.4L582 157.3Z" fill="#2a2a2a" stroke="#323232"></path><path d="M582 157.3L567 129.4L541 150.6Z" fill="#2a2a2a" stroke="#323232"></path><path d="M659 380.7L620 374.7L615 383.9Z" fill="#2a2a2a" stroke="#323232"></path><path d="M659 380.7L644 360.9L620 374.7Z" fill="#2a2a2a" stroke="#323232"></path><path d="M620 374.7L644 360.9L632 309.9Z" fill="#2a2a2a" stroke="#323232"></path><path d="M719 296L677 228.4L641 252Z" fill="#2a2a2a" stroke="#323232"></path><path d="M280 195.1L298 194.3L299 157.4Z" fill="#2a2a2a" stroke="#323232"></path><path d="M317 184.6L298 194.3L320 215.4Z" fill="#2a2a2a" stroke="#323232"></path><path d="M567 129.4L519 99.9L541 150.6Z" fill="#2a2a2a" stroke="#323232"></path><path d="M611 433.6L614 420.4L597 413.7Z" fill="#2a2a2a" stroke="#323232"></path><path d="M597 413.7L614 420.4L615 383.9Z" fill="#2a2a2a" stroke="#323232"></path><path d="M519 99.9L454 89.6L459 142.7Z" fill="#2a2a2a" stroke="#323232"></path><path d="M280 195.1L285 199.1L298 194.3Z" fill="#2a2a2a" stroke="#323232"></path><path d="M298 194.3L285 199.1L320 215.4Z" fill="#2a2a2a" stroke="#323232"></path><path d="M296 298.9L265 340.7L301 318.1Z" fill="#2a2a2a" stroke="#323232"></path><path d="M265 340.7L298 402.6L297 351Z" fill="#2a2a2a" stroke="#323232"></path><path d="M297 351L298 402.6L303 355.9Z" fill="#2a2a2a" stroke="#323232"></path><path d="M366 497.4L397 504.1L385 432.7Z" fill="#2a2a2a" stroke="#323232"></path><path d="M600 487.6L611 433.6L569 441.4Z" fill="#2a2a2a" stroke="#323232"></path><path d="M569 441.4L611 433.6L597 413.7Z" fill="#2a2a2a" stroke="#323232"></path><path d="M614 420.4L659 380.7L615 383.9Z" fill="#2a2a2a" stroke="#323232"></path><path d="M445 473.3L491 492.4L496 473.6Z" fill="#2a2a2a" stroke="#323232"></path><path d="M496 473.6L549 479.6L528 448.7Z" fill="#2a2a2a" stroke="#323232"></path><path d="M491 492.4L549 479.6L496 473.6Z" fill="#2a2a2a" stroke="#323232"></path><path d="M227 300.1L265 340.7L296 298.9Z" fill="#2a2a2a" stroke="#323232"></path><path d="M299 157.4L298 194.3L317 184.6Z" fill="#2a2a2a" stroke="#323232"></path><path d="M246 242.3L246 255L320 215.4Z" fill="#2a2a2a" stroke="#323232"></path><path d="M726 436.6L659 380.7L614 420.4Z" fill="#2a2a2a" stroke="#323232"></path><path d="M712 315.1L712 311.9L632 309.9Z" fill="#2a2a2a" stroke="#323232"></path><path d="M357 144.7L299 157.4L317 184.6Z" fill="#2a2a2a" stroke="#323232"></path><path d="M318 124.7L299 157.4L357 144.7Z" fill="#2a2a2a" stroke="#323232"></path><path d="M318 124.7L357 144.7L411 109.4Z" fill="#2a2a2a" stroke="#323232"></path><path d="M234 430.7L302 425.6L298 402.6Z" fill="#2a2a2a" stroke="#323232"></path><path d="M298 402.6L302 425.6L353 419.7Z" fill="#2a2a2a" stroke="#323232"></path><path d="M445 473.3L437 526.3L491 492.4Z" fill="#2a2a2a" stroke="#323232"></path><path d="M712 311.9L641 252L632 309.9Z" fill="#2a2a2a" stroke="#323232"></path><path d="M641 252L677 228.4L586 218.1Z" fill="#2a2a2a" stroke="#323232"></path><path d="M308 123.4L318 124.7L310 66.7Z" fill="#2a2a2a" stroke="#323232"></path><path d="M246 242.3L285 199.1L280 195.1Z" fill="#2a2a2a" stroke="#323232"></path><path d="M246 242.3L320 215.4L285 199.1Z" fill="#2a2a2a" stroke="#323232"></path><path d="M641 136.4L602 109.6L582 157.3Z" fill="#2a2a2a" stroke="#323232"></path><path d="M567 129.4L568 83.7L519 99.9Z" fill="#2a2a2a" stroke="#323232"></path><path d="M519 99.9L535 58.7L454 89.6Z" fill="#2a2a2a" stroke="#323232"></path><path d="M218 151.4L246 242.3L280 195.1Z" fill="#2a2a2a" stroke="#323232"></path><path d="M218 151.4L280 195.1L299 157.4Z" fill="#2a2a2a" stroke="#323232"></path><path d="M366 497.4L385 432.7L354 496.4Z" fill="#2a2a2a" stroke="#323232"></path><path d="M602 109.6L568 83.7L567 129.4Z" fill="#2a2a2a" stroke="#323232"></path><path d="M310 66.7L318 124.7L411 109.4Z" fill="#2a2a2a" stroke="#323232"></path><path d="M318 124.7L308 123.4L299 157.4Z" fill="#2a2a2a" stroke="#323232"></path><path d="M324 474.4L385 432.7L353 419.7Z" fill="#2a2a2a" stroke="#323232"></path><path d="M523 522.3L564 499.1L549 479.6Z" fill="#2a2a2a" stroke="#323232"></path><path d="M549 479.6L600 487.6L569 441.4Z" fill="#2a2a2a" stroke="#323232"></path><path d="M611 433.6L726 436.6L614 420.4Z" fill="#2a2a2a" stroke="#323232"></path><path d="M523 522.3L549 479.6L491 492.4Z" fill="#2a2a2a" stroke="#323232"></path><path d="M677 228.4L641 136.4L586 218.1Z" fill="#2a2a2a" stroke="#323232"></path><path d="M595 56.7L562 56.7L568 83.7Z" fill="#2a2a2a" stroke="#323232"></path><path d="M302 425.6L324 474.4L353 419.7Z" fill="#2a2a2a" stroke="#323232"></path><path d="M324 474.4L354 496.4L385 432.7Z" fill="#2a2a2a" stroke="#323232"></path><path d="M392 527.3L437 526.3L397 504.1Z" fill="#2a2a2a" stroke="#323232"></path><path d="M392 527.3L397 504.1L366 497.4Z" fill="#2a2a2a" stroke="#323232"></path><path d="M397 504.1L437 526.3L445 473.3Z" fill="#2a2a2a" stroke="#323232"></path><path d="M564 499.1L600 487.6L549 479.6Z" fill="#2a2a2a" stroke="#323232"></path><path d="M484 531.4L523 522.3L491 492.4Z" fill="#2a2a2a" stroke="#323232"></path><path d="M580 538.1L629 507.3L600 487.6Z" fill="#2a2a2a" stroke="#323232"></path><path d="M246 255L227 300.1L296 298.9Z" fill="#2a2a2a" stroke="#323232"></path><path d="M265 340.7L234 430.7L298 402.6Z" fill="#2a2a2a" stroke="#323232"></path><path d="M302 425.6L239 467.4L324 474.4Z" fill="#2a2a2a" stroke="#323232"></path><path d="M189 289.9L227 300.1L246 255Z" fill="#2a2a2a" stroke="#323232"></path><path d="M562 56.7L535 58.7L568 83.7Z" fill="#2a2a2a" stroke="#323232"></path><path d="M568 83.7L535 58.7L519 99.9Z" fill="#2a2a2a" stroke="#323232"></path><path d="M454 89.6L444 37.9L411 109.4Z" fill="#2a2a2a" stroke="#323232"></path><path d="M437 526.3L484 531.4L491 492.4Z" fill="#2a2a2a" stroke="#323232"></path><path d="M712 315.1L644 360.9L659 380.7Z" fill="#2a2a2a" stroke="#323232"></path><path d="M712 315.1L632 309.9L644 360.9Z" fill="#2a2a2a" stroke="#323232"></path><path d="M677 228.4L675 151.4L641 136.4Z" fill="#2a2a2a" stroke="#323232"></path><path d="M739 315.1L712 315.1L759 382.9Z" fill="#2a2a2a" stroke="#323232"></path><path d="M368 550.1L366 497.4L354 496.4Z" fill="#2a2a2a" stroke="#323232"></path><path d="M368 550.1L392 527.3L366 497.4Z" fill="#2a2a2a" stroke="#323232"></path><path d="M437 526.3L435 550.1L484 531.4Z" fill="#2a2a2a" stroke="#323232"></path><path d="M731 168.3L675 151.4L677 228.4Z" fill="#2a2a2a" stroke="#323232"></path><path d="M601 72.9L568 83.7L602 109.6Z" fill="#2a2a2a" stroke="#323232"></path><path d="M601 72.9L602 109.6L686 77.6Z" fill="#2a2a2a" stroke="#323232"></path><path d="M739 315.1L719 296L712 311.9Z" fill="#2a2a2a" stroke="#323232"></path><path d="M712 311.9L719 296L641 252Z" fill="#2a2a2a" stroke="#323232"></path><path d="M406 0L444 37.9L522 -8.1Z" fill="#2a2a2a" stroke="#323232"></path><path d="M535 58.7L444 37.9L454 89.6Z" fill="#2a2a2a" stroke="#323232"></path><path d="M686 77.6L602 109.6L641 136.4Z" fill="#2a2a2a" stroke="#323232"></path><path d="M392 527.3L435 550.1L437 526.3Z" fill="#2a2a2a" stroke="#323232"></path><path d="M547 600L580 538.1L523 522.3Z" fill="#2a2a2a" stroke="#323232"></path><path d="M198 335L211 362.9L265 340.7Z" fill="#2a2a2a" stroke="#323232"></path><path d="M644 27.9L595 56.7L601 72.9Z" fill="#2a2a2a" stroke="#323232"></path><path d="M601 72.9L595 56.7L568 83.7Z" fill="#2a2a2a" stroke="#323232"></path><path d="M522 -8.1L444 37.9L535 58.7Z" fill="#2a2a2a" stroke="#323232"></path><path d="M580 538.1L600 487.6L564 499.1Z" fill="#2a2a2a" stroke="#323232"></path><path d="M600 487.6L629 507.3L611 433.6Z" fill="#2a2a2a" stroke="#323232"></path><path d="M580 538.1L564 499.1L523 522.3Z" fill="#2a2a2a" stroke="#323232"></path><path d="M211 362.9L234 430.7L265 340.7Z" fill="#2a2a2a" stroke="#323232"></path><path d="M324 533.3L368 550.1L354 496.4Z" fill="#2a2a2a" stroke="#323232"></path><path d="M376 17.9L310 66.7L411 109.4Z" fill="#2a2a2a" stroke="#323232"></path><path d="M308 123.4L277 93.6L299 157.4Z" fill="#2a2a2a" stroke="#323232"></path><path d="M189 289.9L198 335L227 300.1Z" fill="#2a2a2a" stroke="#323232"></path><path d="M227 300.1L198 335L265 340.7Z" fill="#2a2a2a" stroke="#323232"></path><path d="M221 450.6L233 453.6L234 430.7Z" fill="#2a2a2a" stroke="#323232"></path><path d="M189 289.9L246 255L246 242.3Z" fill="#2a2a2a" stroke="#323232"></path><path d="M310 66.7L277 93.6L308 123.4Z" fill="#2a2a2a" stroke="#323232"></path><path d="M495 566.3L523 522.3L484 531.4Z" fill="#2a2a2a" stroke="#323232"></path><path d="M744 315L739 315.1L759 382.9Z" fill="#2a2a2a" stroke="#323232"></path><path d="M712 315.1L739 315.1L712 311.9Z" fill="#2a2a2a" stroke="#323232"></path><path d="M780 250.3L731 168.3L677 228.4Z" fill="#2a2a2a" stroke="#323232"></path><path d="M152 168.6L189 289.9L246 242.3Z" fill="#2a2a2a" stroke="#323232"></path><path d="M435 550.1L495 566.3L484 531.4Z" fill="#2a2a2a" stroke="#323232"></path><path d="M324 533.3L354 496.4L324 474.4Z" fill="#2a2a2a" stroke="#323232"></path><path d="M392 527.3L432 575.3L435 550.1Z" fill="#2a2a2a" stroke="#323232"></path><path d="M435 550.1L432 575.3L495 566.3Z" fill="#2a2a2a" stroke="#323232"></path><path d="M759 382.9L712 315.1L659 380.7Z" fill="#2a2a2a" stroke="#323232"></path><path d="M739 315.1L744 315L719 296Z" fill="#2a2a2a" stroke="#323232"></path><path d="M289 530.1L324 533.3L324 474.4Z" fill="#2a2a2a" stroke="#323232"></path><path d="M218 145.6L218 151.4L299 157.4Z" fill="#2a2a2a" stroke="#323232"></path><path d="M218 432.6L234 430.7L211 362.9Z" fill="#2a2a2a" stroke="#323232"></path><path d="M234 430.7L233 453.6L302 425.6Z" fill="#2a2a2a" stroke="#323232"></path><path d="M406 0L376 17.9L444 37.9Z" fill="#2a2a2a" stroke="#323232"></path><path d="M444 37.9L376 17.9L411 109.4Z" fill="#2a2a2a" stroke="#323232"></path><path d="M177 403.7L218 432.6L211 362.9Z" fill="#2a2a2a" stroke="#323232"></path><path d="M277 93.6L218 145.6L299 157.4Z" fill="#2a2a2a" stroke="#323232"></path><path d="M148 309.1L149 310.1L189 289.9Z" fill="#2a2a2a" stroke="#323232"></path><path d="M439 600L432 575.3L404 600Z" fill="#2a2a2a" stroke="#323232"></path><path d="M368 550.1L432 575.3L392 527.3Z" fill="#2a2a2a" stroke="#323232"></path><path d="M150 363.9L188 364.9L198 335Z" fill="#2a2a2a" stroke="#323232"></path><path d="M198 335L188 364.9L211 362.9Z" fill="#2a2a2a" stroke="#323232"></path><path d="M215 475.4L239 467.4L233 453.6Z" fill="#2a2a2a" stroke="#323232"></path><path d="M233 453.6L239 467.4L302 425.6Z" fill="#2a2a2a" stroke="#323232"></path><path d="M780 250.3L677 228.4L719 296Z" fill="#2a2a2a" stroke="#323232"></path><path d="M675 151.4L696 107.6L641 136.4Z" fill="#2a2a2a" stroke="#323232"></path><path d="M730 123.7L696 107.6L675 151.4Z" fill="#2a2a2a" stroke="#323232"></path><path d="M181 484.6L221 450.6L218 432.6Z" fill="#2a2a2a" stroke="#323232"></path><path d="M218 432.6L221 450.6L234 430.7Z" fill="#2a2a2a" stroke="#323232"></path><path d="M550 0L535 58.7L562 56.7Z" fill="#2a2a2a" stroke="#323232"></path><path d="M629 507.3L726 436.6L611 433.6Z" fill="#2a2a2a" stroke="#323232"></path><path d="M237 492.4L289 530.1L324 474.4Z" fill="#2a2a2a" stroke="#323232"></path><path d="M386 600L404 600L368 550.1Z" fill="#2a2a2a" stroke="#323232"></path><path d="M237 492.4L324 474.4L239 467.4Z" fill="#2a2a2a" stroke="#323232"></path><path d="M554 0L562 56.7L595 56.7Z" fill="#2a2a2a" stroke="#323232"></path><path d="M554 0L550 0L562 56.7Z" fill="#2a2a2a" stroke="#323232"></path><path d="M727 513.4L729 437.7L726 436.6Z" fill="#2a2a2a" stroke="#323232"></path><path d="M726 436.6L759 382.9L659 380.7Z" fill="#2a2a2a" stroke="#323232"></path><path d="M618 0L554 0L595 56.7Z" fill="#2a2a2a" stroke="#323232"></path><path d="M554 0L522 -8.1L550 0Z" fill="#2a2a2a" stroke="#323232"></path><path d="M550 0L522 -8.1L535 58.7Z" fill="#2a2a2a" stroke="#323232"></path><path d="M580 538.1L612 557.3L629 507.3Z" fill="#2a2a2a" stroke="#323232"></path><path d="M629 507.3L679 521.4L726 436.6Z" fill="#2a2a2a" stroke="#323232"></path><path d="M580 600L612 557.3L580 538.1Z" fill="#2a2a2a" stroke="#323232"></path><path d="M547 600L523 522.3L495 566.3Z" fill="#2a2a2a" stroke="#323232"></path><path d="M692 68.9L686 77.6L720 97.7Z" fill="#2a2a2a" stroke="#323232"></path><path d="M696 107.6L686 77.6L641 136.4Z" fill="#2a2a2a" stroke="#323232"></path><path d="M215 475.4L237 492.4L239 467.4Z" fill="#2a2a2a" stroke="#323232"></path><path d="M215 475.4L233 453.6L221 450.6Z" fill="#2a2a2a" stroke="#323232"></path><path d="M762 402.7L759 382.9L726 436.6Z" fill="#2a2a2a" stroke="#323232"></path><path d="M744 315L775 286.1L719 296Z" fill="#2a2a2a" stroke="#323232"></path><path d="M150 363.9L177 391.7L188 364.9Z" fill="#2a2a2a" stroke="#323232"></path><path d="M188 364.9L177 391.7L211 362.9Z" fill="#2a2a2a" stroke="#323232"></path><path d="M778 334L775 286.1L744 315Z" fill="#2a2a2a" stroke="#323232"></path><path d="M376 -21.1L376 17.9L406 0Z" fill="#2a2a2a" stroke="#323232"></path><path d="M376 -21.1L355 0L376 17.9Z" fill="#2a2a2a" stroke="#323232"></path><path d="M376 17.9L317 9.9L310 66.7Z" fill="#2a2a2a" stroke="#323232"></path><path d="M310 66.7L290 27.9L277 93.6Z" fill="#2a2a2a" stroke="#323232"></path><path d="M277 93.6L182 96.7L218 145.6Z" fill="#2a2a2a" stroke="#323232"></path><path d="M177 391.7L177 403.7L211 362.9Z" fill="#2a2a2a" stroke="#323232"></path><path d="M751 115.6L730 123.7L731 168.3Z" fill="#2a2a2a" stroke="#323232"></path><path d="M731 168.3L730 123.7L675 151.4Z" fill="#2a2a2a" stroke="#323232"></path><path d="M404 600L432 575.3L368 550.1Z" fill="#2a2a2a" stroke="#323232"></path><path d="M432 575.3L439 600L495 566.3Z" fill="#2a2a2a" stroke="#323232"></path><path d="M181 484.6L215 475.4L221 450.6Z" fill="#2a2a2a" stroke="#323232"></path><path d="M376 -21.1L347 0L355 0Z" fill="#2a2a2a" stroke="#323232"></path><path d="M355 0L347 0L376 17.9Z" fill="#2a2a2a" stroke="#323232"></path><path d="M678 525.4L679 521.4L629 507.3Z" fill="#2a2a2a" stroke="#323232"></path><path d="M759 382.9L778 334L744 315Z" fill="#2a2a2a" stroke="#323232"></path><path d="M720 97.7L686 77.6L696 107.6Z" fill="#2a2a2a" stroke="#323232"></path><path d="M686 77.6L644 27.9L601 72.9Z" fill="#2a2a2a" stroke="#323232"></path><path d="M317 9.9L290 27.9L310 66.7Z" fill="#2a2a2a" stroke="#323232"></path><path d="M787 251.3L780 250.3L775 286.1Z" fill="#2a2a2a" stroke="#323232"></path><path d="M775 286.1L780 250.3L719 296Z" fill="#2a2a2a" stroke="#323232"></path><path d="M692 68.9L644 27.9L686 77.6Z" fill="#2a2a2a" stroke="#323232"></path><path d="M729 437.7L762 402.7L726 436.6Z" fill="#2a2a2a" stroke="#323232"></path><path d="M821 358L785 331.9L778 334Z" fill="#2a2a2a" stroke="#323232"></path><path d="M790 394.7L762 402.7L800 427.6Z" fill="#2a2a2a" stroke="#323232"></path><path d="M349 612.1L368 550.1L324 533.3Z" fill="#2a2a2a" stroke="#323232"></path><path d="M612 557.3L678 525.4L629 507.3Z" fill="#2a2a2a" stroke="#323232"></path><path d="M679 521.4L727 513.4L726 436.6Z" fill="#2a2a2a" stroke="#323232"></path><path d="M347 0L317 9.9L376 17.9Z" fill="#2a2a2a" stroke="#323232"></path><path d="M725 88.6L720 97.7L751 115.6Z" fill="#2a2a2a" stroke="#323232"></path><path d="M730 123.7L720 97.7L696 107.6Z" fill="#2a2a2a" stroke="#323232"></path><path d="M148 309.1L189 289.9L112 246.3Z" fill="#2a2a2a" stroke="#323232"></path><path d="M189 289.9L149 310.1L198 335Z" fill="#2a2a2a" stroke="#323232"></path><path d="M177 391.7L150 363.9L177 403.7Z" fill="#2a2a2a" stroke="#323232"></path><path d="M376 -21.1L333 0L347 0Z" fill="#2a2a2a" stroke="#323232"></path><path d="M347 0L333 0L317 9.9Z" fill="#2a2a2a" stroke="#323232"></path><path d="M152 168.6L246 242.3L218 151.4Z" fill="#2a2a2a" stroke="#323232"></path><path d="M149 310.1L150 363.9L198 335Z" fill="#2a2a2a" stroke="#323232"></path><path d="M376 -21.1L331 0L333 0Z" fill="#2a2a2a" stroke="#323232"></path><path d="M333 0L331 0L317 9.9Z" fill="#2a2a2a" stroke="#323232"></path><path d="M222 41.7L236 44.7L235 -7.1Z" fill="#2a2a2a" stroke="#323232"></path><path d="M237 492.4L285 553.3L289 530.1Z" fill="#2a2a2a" stroke="#323232"></path><path d="M289 530.1L285 553.3L324 533.3Z" fill="#2a2a2a" stroke="#323232"></path><path d="M231 579.1L285 553.3L237 492.4Z" fill="#2a2a2a" stroke="#323232"></path><path d="M439 600L547 600L495 566.3Z" fill="#2a2a2a" stroke="#323232"></path><path d="M669 597.1L686 529.3L678 525.4Z" fill="#2a2a2a" stroke="#323232"></path><path d="M349 612.1L386 600L368 550.1Z" fill="#2a2a2a" stroke="#323232"></path><path d="M790 394.7L778 334L759 382.9Z" fill="#2a2a2a" stroke="#323232"></path><path d="M778 334L785 331.9L775 286.1Z" fill="#2a2a2a" stroke="#323232"></path><path d="M826 233.4L787 251.3L850 244Z" fill="#2a2a2a" stroke="#323232"></path><path d="M780 250.3L772 173.3L731 168.3Z" fill="#2a2a2a" stroke="#323232"></path><path d="M522 -8.1L376 -21.1L406 0Z" fill="#2a2a2a" stroke="#323232"></path><path d="M632 578.1L678 525.4L612 557.3Z" fill="#2a2a2a" stroke="#323232"></path><path d="M678 525.4L686 529.3L679 521.4Z" fill="#2a2a2a" stroke="#323232"></path><path d="M134 353L150 363.9L149 310.1Z" fill="#2a2a2a" stroke="#323232"></path><path d="M181 484.6L202 497.3L215 475.4Z" fill="#2a2a2a" stroke="#323232"></path><path d="M627 0L618 0L644 27.9Z" fill="#2a2a2a" stroke="#323232"></path><path d="M644 27.9L618 0L595 56.7Z" fill="#2a2a2a" stroke="#323232"></path><path d="M554 0L618 0L522 -8.1Z" fill="#2a2a2a" stroke="#323232"></path><path d="M522 -8.1L742 0L376 -21.1Z" fill="#2a2a2a" stroke="#323232"></path><path d="M799 228.4L772 173.3L780 250.3Z" fill="#2a2a2a" stroke="#323232"></path><path d="M751 115.6L720 97.7L730 123.7Z" fill="#2a2a2a" stroke="#323232"></path><path d="M720 97.7L725 88.6L692 68.9Z" fill="#2a2a2a" stroke="#323232"></path><path d="M666 0L627 0L644 27.9Z" fill="#2a2a2a" stroke="#323232"></path><path d="M547 600L580 600L580 538.1Z" fill="#2a2a2a" stroke="#323232"></path><path d="M701 36.7L644 27.9L692 68.9Z" fill="#2a2a2a" stroke="#323232"></path><path d="M618 0L627 0L522 -8.1Z" fill="#2a2a2a" stroke="#323232"></path><path d="M580 600L632 578.1L612 557.3Z" fill="#2a2a2a" stroke="#323232"></path><path d="M772 173.3L751 115.6L731 168.3Z" fill="#2a2a2a" stroke="#323232"></path><path d="M236 44.7L290 27.9L267 0Z" fill="#2a2a2a" stroke="#323232"></path><path d="M290 27.9L236 44.7L277 93.6Z" fill="#2a2a2a" stroke="#323232"></path><path d="M165 129.4L152 168.6L218 151.4Z" fill="#2a2a2a" stroke="#323232"></path><path d="M181 484.6L218 432.6L145 454.4Z" fill="#2a2a2a" stroke="#323232"></path><path d="M215 475.4L202 497.3L237 492.4Z" fill="#2a2a2a" stroke="#323232"></path><path d="M165 129.4L218 151.4L218 145.6Z" fill="#2a2a2a" stroke="#323232"></path><path d="M818 216.1L799 228.4L826 233.4Z" fill="#2a2a2a" stroke="#323232"></path><path d="M787 251.3L799 228.4L780 250.3Z" fill="#2a2a2a" stroke="#323232"></path><path d="M772 173.3L836 132.6L751 115.6Z" fill="#2a2a2a" stroke="#323232"></path><path d="M148 309.1L134 353L149 310.1Z" fill="#2a2a2a" stroke="#323232"></path><path d="M129 443.7L145 454.4L177 403.7Z" fill="#2a2a2a" stroke="#323232"></path><path d="M76 296.1L134 353L148 309.1Z" fill="#2a2a2a" stroke="#323232"></path><path d="M800 427.6L762 402.7L729 437.7Z" fill="#2a2a2a" stroke="#323232"></path><path d="M762 402.7L790 394.7L759 382.9Z" fill="#2a2a2a" stroke="#323232"></path><path d="M826 233.4L799 228.4L787 251.3Z" fill="#2a2a2a" stroke="#323232"></path><path d="M182 96.7L165 129.4L218 145.6Z" fill="#2a2a2a" stroke="#323232"></path><path d="M344 614.1L349 612.1L324 533.3Z" fill="#2a2a2a" stroke="#323232"></path><path d="M386 600L349 612.1L404 600Z" fill="#2a2a2a" stroke="#323232"></path><path d="M404 600L344 614.1L439 600Z" fill="#2a2a2a" stroke="#323232"></path><path d="M439 600L344 614.1L547 600Z" fill="#2a2a2a" stroke="#323232"></path><path d="M547 600L781 617.1L580 600Z" fill="#2a2a2a" stroke="#323232"></path><path d="M344 614.1L324 533.3L289 600Z" fill="#2a2a2a" stroke="#323232"></path><path d="M717 545.1L727 513.4L686 529.3Z" fill="#2a2a2a" stroke="#323232"></path><path d="M686 529.3L727 513.4L679 521.4Z" fill="#2a2a2a" stroke="#323232"></path><path d="M236 44.7L182 96.7L277 93.6Z" fill="#2a2a2a" stroke="#323232"></path><path d="M734 64.9L701 36.7L692 68.9Z" fill="#2a2a2a" stroke="#323232"></path><path d="M734 64.9L692 68.9L725 88.6Z" fill="#2a2a2a" stroke="#323232"></path><path d="M145 454.4L218 432.6L177 403.7Z" fill="#2a2a2a" stroke="#323232"></path><path d="M289 600L324 533.3L285 553.3Z" fill="#2a2a2a" stroke="#323232"></path><path d="M289 600L285 553.3L273 600Z" fill="#2a2a2a" stroke="#323232"></path><path d="M349 612.1L344 614.1L404 600Z" fill="#2a2a2a" stroke="#323232"></path><path d="M267 0L290 27.9L317 9.9Z" fill="#2a2a2a" stroke="#323232"></path><path d="M236 44.7L222 41.7L182 96.7Z" fill="#2a2a2a" stroke="#323232"></path><path d="M267 0L317 9.9L331 0Z" fill="#2a2a2a" stroke="#323232"></path><path d="M751 115.6L734 64.9L725 88.6Z" fill="#2a2a2a" stroke="#323232"></path><path d="M747 28.7L734 64.9L781 52.9Z" fill="#2a2a2a" stroke="#323232"></path><path d="M137 130.7L152 168.6L165 129.4Z" fill="#2a2a2a" stroke="#323232"></path><path d="M133 134.4L132 182.3L152 168.6Z" fill="#2a2a2a" stroke="#323232"></path><path d="M152 168.6L132 182.3L189 289.9Z" fill="#2a2a2a" stroke="#323232"></path><path d="M737 0L666 0L701 36.7Z" fill="#2a2a2a" stroke="#323232"></path><path d="M701 36.7L666 0L644 27.9Z" fill="#2a2a2a" stroke="#323232"></path><path d="M627 0L666 0L522 -8.1Z" fill="#2a2a2a" stroke="#323232"></path><path d="M376 -21.1L267 0L331 0Z" fill="#2a2a2a" stroke="#323232"></path><path d="M132 182.3L112 246.3L189 289.9Z" fill="#2a2a2a" stroke="#323232"></path><path d="M580 600L644 600L632 578.1Z" fill="#2a2a2a" stroke="#323232"></path><path d="M632 578.1L669 597.1L678 525.4Z" fill="#2a2a2a" stroke="#323232"></path><path d="M781 617.1L644 600L580 600Z" fill="#2a2a2a" stroke="#323232"></path><path d="M273 600L285 553.3L231 579.1Z" fill="#2a2a2a" stroke="#323232"></path><path d="M685 600L717 545.1L686 529.3Z" fill="#2a2a2a" stroke="#323232"></path><path d="M801 490.3L800 427.6L729 437.7Z" fill="#2a2a2a" stroke="#323232"></path><path d="M787 251.3L775 286.1L846 317.9Z" fill="#2a2a2a" stroke="#323232"></path><path d="M799 228.4L815 197.4L772 173.3Z" fill="#2a2a2a" stroke="#323232"></path><path d="M818 216.1L815 197.4L799 228.4Z" fill="#2a2a2a" stroke="#323232"></path><path d="M760 518.1L729 437.7L727 513.4Z" fill="#2a2a2a" stroke="#323232"></path><path d="M790 394.7L821 358L778 334Z" fill="#2a2a2a" stroke="#323232"></path><path d="M845 412.4L821 358L790 394.7Z" fill="#2a2a2a" stroke="#323232"></path><path d="M129 443.7L177 403.7L150 363.9Z" fill="#2a2a2a" stroke="#323232"></path><path d="M181 484.6L170 502.1L202 497.3Z" fill="#2a2a2a" stroke="#323232"></path><path d="M129 443.7L150 363.9L134 353Z" fill="#2a2a2a" stroke="#323232"></path><path d="M182 96.7L163 89.9L165 129.4Z" fill="#2a2a2a" stroke="#323232"></path><path d="M222 41.7L163 89.9L182 96.7Z" fill="#2a2a2a" stroke="#323232"></path><path d="M153 81.6L163 89.9L147 39.9Z" fill="#2a2a2a" stroke="#323232"></path><path d="M846 317.9L775 286.1L785 331.9Z" fill="#2a2a2a" stroke="#323232"></path><path d="M855 227.3L824 176.6L815 197.4Z" fill="#2a2a2a" stroke="#323232"></path><path d="M145 454.4L170 502.1L181 484.6Z" fill="#2a2a2a" stroke="#323232"></path><path d="M163 89.9L137 130.7L165 129.4Z" fill="#2a2a2a" stroke="#323232"></path><path d="M69 223.3L92 250.1L112 246.3Z" fill="#2a2a2a" stroke="#323232"></path><path d="M231 579.1L237 492.4L202 497.3Z" fill="#2a2a2a" stroke="#323232"></path><path d="M289 600L273 600L344 614.1Z" fill="#2a2a2a" stroke="#323232"></path><path d="M644 600L661 600L632 578.1Z" fill="#2a2a2a" stroke="#323232"></path><path d="M781 617.1L661 600L644 600Z" fill="#2a2a2a" stroke="#323232"></path><path d="M781 617.1L663 600L661 600Z" fill="#2a2a2a" stroke="#323232"></path><path d="M661 600L669 597.1L632 578.1Z" fill="#2a2a2a" stroke="#323232"></path><path d="M119 101.6L133 134.4L137 130.7Z" fill="#2a2a2a" stroke="#323232"></path><path d="M137 130.7L133 134.4L152 168.6Z" fill="#2a2a2a" stroke="#323232"></path><path d="M663 600L669 597.1L661 600Z" fill="#2a2a2a" stroke="#323232"></path><path d="M145 454.4L121 497.3L170 502.1Z" fill="#2a2a2a" stroke="#323232"></path><path d="M61 338L129 443.7L134 353Z" fill="#2a2a2a" stroke="#323232"></path><path d="M717 545.1L760 518.1L727 513.4Z" fill="#2a2a2a" stroke="#323232"></path><path d="M804 517.3L760 518.1L801 600Z" fill="#2a2a2a" stroke="#323232"></path><path d="M147 547.3L231 579.1L202 497.3Z" fill="#2a2a2a" stroke="#323232"></path><path d="M855 227.3L815 197.4L818 216.1Z" fill="#2a2a2a" stroke="#323232"></path><path d="M815 197.4L824 176.6L772 173.3Z" fill="#2a2a2a" stroke="#323232"></path><path d="M147 39.9L163 89.9L222 41.7Z" fill="#2a2a2a" stroke="#323232"></path><path d="M163 89.9L119 101.6L137 130.7Z" fill="#2a2a2a" stroke="#323232"></path><path d="M376 -21.1L235 -7.1L267 0Z" fill="#2a2a2a" stroke="#323232"></path><path d="M267 0L235 -7.1L236 44.7Z" fill="#2a2a2a" stroke="#323232"></path><path d="M69 223.3L112 246.3L132 182.3Z" fill="#2a2a2a" stroke="#323232"></path><path d="M112 246.3L76 296.1L148 309.1Z" fill="#2a2a2a" stroke="#323232"></path><path d="M845 412.4L841 340.7L821 358Z" fill="#2a2a2a" stroke="#323232"></path><path d="M821 358L841 340.7L785 331.9Z" fill="#2a2a2a" stroke="#323232"></path><path d="M826 233.4L855 227.3L818 216.1Z" fill="#2a2a2a" stroke="#323232"></path><path d="M845 412.4L790 394.7L800 427.6Z" fill="#2a2a2a" stroke="#323232"></path><path d="M663 600L685 600L669 597.1Z" fill="#2a2a2a" stroke="#323232"></path><path d="M669 597.1L685 600L686 529.3Z" fill="#2a2a2a" stroke="#323232"></path><path d="M781 617.1L685 600L663 600Z" fill="#2a2a2a" stroke="#323232"></path><path d="M841 340.7L846 317.9L785 331.9Z" fill="#2a2a2a" stroke="#323232"></path><path d="M801 490.3L817 439.6L800 427.6Z" fill="#2a2a2a" stroke="#323232"></path><path d="M781 52.9L734 64.9L751 115.6Z" fill="#2a2a2a" stroke="#323232"></path><path d="M734 64.9L747 28.7L701 36.7Z" fill="#2a2a2a" stroke="#323232"></path><path d="M846 317.9L850 244L787 251.3Z" fill="#2a2a2a" stroke="#323232"></path><path d="M806 507.3L801 490.3L760 518.1Z" fill="#2a2a2a" stroke="#323232"></path><path d="M760 518.1L801 490.3L729 437.7Z" fill="#2a2a2a" stroke="#323232"></path><path d="M92 250.1L76 296.1L112 246.3Z" fill="#2a2a2a" stroke="#323232"></path><path d="M883 218.1L855 227.3L850 244Z" fill="#2a2a2a" stroke="#323232"></path><path d="M850 244L855 227.3L826 233.4Z" fill="#2a2a2a" stroke="#323232"></path><path d="M836 132.6L781 52.9L751 115.6Z" fill="#2a2a2a" stroke="#323232"></path><path d="M836 132.6L772 173.3L824 176.6Z" fill="#2a2a2a" stroke="#323232"></path><path d="M153 81.6L119 101.6L163 89.9Z" fill="#2a2a2a" stroke="#323232"></path><path d="M60 127.4L69 223.3L132 182.3Z" fill="#2a2a2a" stroke="#323232"></path><path d="M92 250.1L31 259L76 296.1Z" fill="#2a2a2a" stroke="#323232"></path><path d="M97 43.7L119 101.6L153 81.6Z" fill="#2a2a2a" stroke="#323232"></path><path d="M742 0L737 0L747 28.7Z" fill="#2a2a2a" stroke="#323232"></path><path d="M747 28.7L737 0L701 36.7Z" fill="#2a2a2a" stroke="#323232"></path><path d="M666 0L737 0L522 -8.1Z" fill="#2a2a2a" stroke="#323232"></path><path d="M842 436.6L845 412.4L817 439.6Z" fill="#2a2a2a" stroke="#323232"></path><path d="M817 439.6L845 412.4L800 427.6Z" fill="#2a2a2a" stroke="#323232"></path><path d="M900 309.1L900 294L846 317.9Z" fill="#2a2a2a" stroke="#323232"></path><path d="M900 294L883 218.1L850 244Z" fill="#2a2a2a" stroke="#323232"></path><path d="M164 600L216 600L231 579.1Z" fill="#2a2a2a" stroke="#323232"></path><path d="M231 579.1L216 600L273 600Z" fill="#2a2a2a" stroke="#323232"></path><path d="M273 600L216 600L344 614.1Z" fill="#2a2a2a" stroke="#323232"></path><path d="M147 547.3L202 497.3L170 502.1Z" fill="#2a2a2a" stroke="#323232"></path><path d="M802 1.9L742 0L747 28.7Z" fill="#2a2a2a" stroke="#323232"></path><path d="M737 0L742 0L522 -8.1Z" fill="#2a2a2a" stroke="#323232"></path><path d="M900 143.6L836 132.6L824 176.6Z" fill="#2a2a2a" stroke="#323232"></path><path d="M235 -7.1L188 0L222 41.7Z" fill="#2a2a2a" stroke="#323232"></path><path d="M60 127.4L132 182.3L133 134.4Z" fill="#2a2a2a" stroke="#323232"></path><path d="M103 485.4L145 454.4L129 443.7Z" fill="#2a2a2a" stroke="#323232"></path><path d="M103 485.4L121 497.3L145 454.4Z" fill="#2a2a2a" stroke="#323232"></path><path d="M801 490.3L842 436.6L817 439.6Z" fill="#2a2a2a" stroke="#323232"></path><path d="M804 517.3L806 507.3L760 518.1Z" fill="#2a2a2a" stroke="#323232"></path><path d="M801 490.3L806 507.3L842 436.6Z" fill="#2a2a2a" stroke="#323232"></path><path d="M188 0L147 39.9L222 41.7Z" fill="#2a2a2a" stroke="#323232"></path><path d="M801 600L760 518.1L717 545.1Z" fill="#2a2a2a" stroke="#323232"></path><path d="M900 482.3L853 423.4L842 436.6Z" fill="#2a2a2a" stroke="#323232"></path><path d="M31 259L61 338L76 296.1Z" fill="#2a2a2a" stroke="#323232"></path><path d="M76 296.1L61 338L134 353Z" fill="#2a2a2a" stroke="#323232"></path><path d="M235 -7.1L178 0L188 0Z" fill="#2a2a2a" stroke="#323232"></path><path d="M188 0L178 0L147 39.9Z" fill="#2a2a2a" stroke="#323232"></path><path d="M900 397.7L853 423.4L900 482.3Z" fill="#2a2a2a" stroke="#323232"></path><path d="M842 436.6L853 423.4L845 412.4Z" fill="#2a2a2a" stroke="#323232"></path><path d="M900 351.9L846 317.9L841 340.7Z" fill="#2a2a2a" stroke="#323232"></path><path d="M121 497.3L147 547.3L170 502.1Z" fill="#2a2a2a" stroke="#323232"></path><path d="M29 465.6L103 485.4L129 443.7Z" fill="#2a2a2a" stroke="#323232"></path><path d="M121 497.3L127 557.3L147 547.3Z" fill="#2a2a2a" stroke="#323232"></path><path d="M900 294L850 244L846 317.9Z" fill="#2a2a2a" stroke="#323232"></path><path d="M855 227.3L883 218.1L824 176.6Z" fill="#2a2a2a" stroke="#323232"></path><path d="M802 1.9L800 27.7L824 0Z" fill="#2a2a2a" stroke="#323232"></path><path d="M836 132.6L800 27.7L781 52.9Z" fill="#2a2a2a" stroke="#323232"></path><path d="M781 52.9L800 27.7L747 28.7Z" fill="#2a2a2a" stroke="#323232"></path><path d="M108 565.3L127 557.3L101 565.1Z" fill="#2a2a2a" stroke="#323232"></path><path d="M147 547.3L164 600L231 579.1Z" fill="#2a2a2a" stroke="#323232"></path><path d="M900 309.1L846 317.9L900 351.9Z" fill="#2a2a2a" stroke="#323232"></path><path d="M127 557.3L164 600L147 547.3Z" fill="#2a2a2a" stroke="#323232"></path><path d="M216 600L61 617.1L344 614.1Z" fill="#2a2a2a" stroke="#323232"></path><path d="M900 351.9L841 340.7L900 370.6Z" fill="#2a2a2a" stroke="#323232"></path><path d="M97 43.7L153 81.6L147 39.9Z" fill="#2a2a2a" stroke="#323232"></path><path d="M80 41.9L63 123.6L119 101.6Z" fill="#2a2a2a" stroke="#323232"></path><path d="M119 101.6L63 123.6L133 134.4Z" fill="#2a2a2a" stroke="#323232"></path><path d="M69 223.3L31 259L92 250.1Z" fill="#2a2a2a" stroke="#323232"></path><path d="M31 228.4L31 259L69 223.3Z" fill="#2a2a2a" stroke="#323232"></path><path d="M101 565.1L121 497.3L53 525.4Z" fill="#2a2a2a" stroke="#323232"></path><path d="M63 123.6L60 127.4L133 134.4Z" fill="#2a2a2a" stroke="#323232"></path><path d="M900 370.6L841 340.7L845 412.4Z" fill="#2a2a2a" stroke="#323232"></path><path d="M900 370.6L845 412.4L900 397.7Z" fill="#2a2a2a" stroke="#323232"></path><path d="M900 294L900 216.3L883 218.1Z" fill="#2a2a2a" stroke="#323232"></path><path d="M883 218.1L900 203.4L824 176.6Z" fill="#2a2a2a" stroke="#323232"></path><path d="M22 206.3L31 228.4L69 223.3Z" fill="#2a2a2a" stroke="#323232"></path><path d="M900 397.7L845 412.4L853 423.4Z" fill="#2a2a2a" stroke="#323232"></path><path d="M900 216.3L900 203.4L883 218.1Z" fill="#2a2a2a" stroke="#323232"></path><path d="M800 27.7L802 1.9L747 28.7Z" fill="#2a2a2a" stroke="#323232"></path><path d="M742 0L824 0L376 -21.1Z" fill="#2a2a2a" stroke="#323232"></path><path d="M824 0L800 27.7L858 0Z" fill="#2a2a2a" stroke="#323232"></path><path d="M0 147.4L0 149.6L60 127.4Z" fill="#2a2a2a" stroke="#323232"></path><path d="M106 0L97 43.7L147 39.9Z" fill="#2a2a2a" stroke="#323232"></path><path d="M900 482.3L842 436.6L806 507.3Z" fill="#2a2a2a" stroke="#323232"></path><path d="M60 127.4L22 206.3L69 223.3Z" fill="#2a2a2a" stroke="#323232"></path><path d="M31 228.4L0 254.1L31 259Z" fill="#2a2a2a" stroke="#323232"></path><path d="M0 207.3L22 206.3L0 149.6Z" fill="#2a2a2a" stroke="#323232"></path><path d="M101 565.1L127 557.3L121 497.3Z" fill="#2a2a2a" stroke="#323232"></path><path d="M127 557.3L117 600L164 600Z" fill="#2a2a2a" stroke="#323232"></path><path d="M121 497.3L103 485.4L53 525.4Z" fill="#2a2a2a" stroke="#323232"></path><path d="M344 614.1L781 617.1L547 600Z" fill="#2a2a2a" stroke="#323232"></path><path d="M685 600L781 617.1L717 545.1Z" fill="#2a2a2a" stroke="#323232"></path><path d="M900 491.4L900 482.3L806 507.3Z" fill="#2a2a2a" stroke="#323232"></path><path d="M781 617.1L801 600L717 545.1Z" fill="#2a2a2a" stroke="#323232"></path><path d="M900 203.4L900 143.6L824 176.6Z" fill="#2a2a2a" stroke="#323232"></path><path d="M781 617.1L803 600L801 600Z" fill="#2a2a2a" stroke="#323232"></path><path d="M801 600L803 600L804 517.3Z" fill="#2a2a2a" stroke="#323232"></path><path d="M29 465.6L129 443.7L0 409.7Z" fill="#2a2a2a" stroke="#323232"></path><path d="M108 565.3L117 600L127 557.3Z" fill="#2a2a2a" stroke="#323232"></path><path d="M84 13.9L80 41.9L97 43.7Z" fill="#2a2a2a" stroke="#323232"></path><path d="M97 43.7L80 41.9L119 101.6Z" fill="#2a2a2a" stroke="#323232"></path><path d="M858 0L800 27.7L900 45.7Z" fill="#2a2a2a" stroke="#323232"></path><path d="M802 1.9L824 0L742 0Z" fill="#2a2a2a" stroke="#323232"></path><path d="M781 617.1L807 600L803 600Z" fill="#2a2a2a" stroke="#323232"></path><path d="M803 600L807 600L804 517.3Z" fill="#2a2a2a" stroke="#323232"></path><path d="M235 -7.1L106 0L178 0Z" fill="#2a2a2a" stroke="#323232"></path><path d="M178 0L106 0L147 39.9Z" fill="#2a2a2a" stroke="#323232"></path><path d="M64 0L106 0L235 -7.1Z" fill="#2a2a2a" stroke="#323232"></path><path d="M101 565.1L117 600L108 565.3Z" fill="#2a2a2a" stroke="#323232"></path><path d="M164 600L61 617.1L216 600Z" fill="#2a2a2a" stroke="#323232"></path><path d="M0 207.3L0 254.1L31 228.4Z" fill="#2a2a2a" stroke="#323232"></path><path d="M31 259L0 342.9L61 338Z" fill="#2a2a2a" stroke="#323232"></path><path d="M0 207.3L31 228.4L22 206.3Z" fill="#2a2a2a" stroke="#323232"></path><path d="M0 254.1L0 342.9L31 259Z" fill="#2a2a2a" stroke="#323232"></path><path d="M106 0L84 13.9L97 43.7Z" fill="#2a2a2a" stroke="#323232"></path><path d="M0 149.6L22 206.3L60 127.4Z" fill="#2a2a2a" stroke="#323232"></path><path d="M0 409.7L129 443.7L61 338Z" fill="#2a2a2a" stroke="#323232"></path><path d="M101 565.1L61 617.1L117 600Z" fill="#2a2a2a" stroke="#323232"></path><path d="M0 342.9L0 359L61 338Z" fill="#2a2a2a" stroke="#323232"></path><path d="M60 127.4L0 112.7L0 147.4Z" fill="#2a2a2a" stroke="#323232"></path><path d="M0 359L0 374.6L61 338Z" fill="#2a2a2a" stroke="#323232"></path><path d="M900 491.4L806 507.3L804 517.3Z" fill="#2a2a2a" stroke="#323232"></path><path d="M29 465.6L53 525.4L103 485.4Z" fill="#2a2a2a" stroke="#323232"></path><path d="M0 342.9L-7 341.9L0 359Z" fill="#2a2a2a" stroke="#323232"></path><path d="M0 359L-7 341.9L0 374.6Z" fill="#2a2a2a" stroke="#323232"></path><path d="M0 254.1L-7 341.9L0 342.9Z" fill="#2a2a2a" stroke="#323232"></path><path d="M0 207.3L-7 341.9L0 254.1Z" fill="#2a2a2a" stroke="#323232"></path><path d="M900 566.1L900 491.4L804 517.3Z" fill="#2a2a2a" stroke="#323232"></path><path d="M-11 420.7L0 409.7L0 374.6Z" fill="#2a2a2a" stroke="#323232"></path><path d="M0 374.6L0 409.7L61 338Z" fill="#2a2a2a" stroke="#323232"></path><path d="M29 465.6L0 508.3L53 525.4Z" fill="#2a2a2a" stroke="#323232"></path><path d="M900 45.7L800 27.7L836 132.6Z" fill="#2a2a2a" stroke="#323232"></path><path d="M824 0L858 0L376 -21.1Z" fill="#2a2a2a" stroke="#323232"></path><path d="M60 127.4L63 123.6L0 112.7Z" fill="#2a2a2a" stroke="#323232"></path><path d="M0 207.3L0 149.6L-7 341.9Z" fill="#2a2a2a" stroke="#323232"></path><path d="M0 112.7L63 123.6L0 57.9Z" fill="#2a2a2a" stroke="#323232"></path><path d="M0 149.6L0 147.4L-7 341.9Z" fill="#2a2a2a" stroke="#323232"></path><path d="M0 0L-11 420.7L-7 341.9Z" fill="#2a2a2a" stroke="#323232"></path><path d="M-7 341.9L-11 420.7L0 374.6Z" fill="#2a2a2a" stroke="#323232"></path><path d="M0 409.7L-11 420.7L29 465.6Z" fill="#2a2a2a" stroke="#323232"></path><path d="M84 13.9L64 0L80 41.9Z" fill="#2a2a2a" stroke="#323232"></path><path d="M106 0L64 0L84 13.9Z" fill="#2a2a2a" stroke="#323232"></path><path d="M376 -21.1L64 0L235 -7.1Z" fill="#2a2a2a" stroke="#323232"></path><path d="M900 143.6L900 45.7L836 132.6Z" fill="#2a2a2a" stroke="#323232"></path><path d="M0 57.9L63 123.6L80 41.9Z" fill="#2a2a2a" stroke="#323232"></path><path d="M0 147.4L0 112.7L-7 341.9Z" fill="#2a2a2a" stroke="#323232"></path><path d="M-11 420.7L-3 465.6L29 465.6Z" fill="#2a2a2a" stroke="#323232"></path><path d="M53 525.4L33 578.1L101 565.1Z" fill="#2a2a2a" stroke="#323232"></path><path d="M900 45.7L900 26.9L858 0Z" fill="#2a2a2a" stroke="#323232"></path><path d="M807 600L900 566.1L804 517.3Z" fill="#2a2a2a" stroke="#323232"></path><path d="M901 567.1L900 566.1L900 600Z" fill="#2a2a2a" stroke="#323232"></path><path d="M0 511.4L0 508.3L-15 600Z" fill="#2a2a2a" stroke="#323232"></path><path d="M-3 465.6L0 508.3L29 465.6Z" fill="#2a2a2a" stroke="#323232"></path><path d="M900 600L900 566.1L807 600Z" fill="#2a2a2a" stroke="#323232"></path><path d="M900 566.1L901 567.1L900 491.4Z" fill="#2a2a2a" stroke="#323232"></path><path d="M900 491.4L901 567.1L900 482.3Z" fill="#2a2a2a" stroke="#323232"></path><path d="M900 482.3L901 567.1L900 397.7Z" fill="#2a2a2a" stroke="#323232"></path><path d="M900 397.7L908 14.9L900 370.6Z" fill="#2a2a2a" stroke="#323232"></path><path d="M900 370.6L908 14.9L900 351.9Z" fill="#2a2a2a" stroke="#323232"></path><path d="M900 351.9L908 14.9L900 309.1Z" fill="#2a2a2a" stroke="#323232"></path><path d="M900 309.1L908 14.9L900 294Z" fill="#2a2a2a" stroke="#323232"></path><path d="M900 294L908 14.9L900 216.3Z" fill="#2a2a2a" stroke="#323232"></path><path d="M900 216.3L908 14.9L900 203.4Z" fill="#2a2a2a" stroke="#323232"></path><path d="M900 203.4L908 14.9L900 143.6Z" fill="#2a2a2a" stroke="#323232"></path><path d="M900 143.6L908 14.9L900 45.7Z" fill="#2a2a2a" stroke="#323232"></path><path d="M900 45.7L908 14.9L900 26.9Z" fill="#2a2a2a" stroke="#323232"></path><path d="M-15 600L0 508.3L-3 465.6Z" fill="#2a2a2a" stroke="#323232"></path><path d="M0 508.3L0 511.4L53 525.4Z" fill="#2a2a2a" stroke="#323232"></path><path d="M901 567.1L908 14.9L900 397.7Z" fill="#2a2a2a" stroke="#323232"></path><path d="M900 26.9L900 0L858 0Z" fill="#2a2a2a" stroke="#323232"></path><path d="M0 522.1L33 578.1L53 525.4Z" fill="#2a2a2a" stroke="#323232"></path><path d="M5 24.7L0 57.9L80 41.9Z" fill="#2a2a2a" stroke="#323232"></path><path d="M0 112.7L0 57.9L-7 341.9Z" fill="#2a2a2a" stroke="#323232"></path><path d="M908 14.9L900 0L900 26.9Z" fill="#2a2a2a" stroke="#323232"></path><path d="M858 0L900 0L376 -21.1Z" fill="#2a2a2a" stroke="#323232"></path><path d="M-15 600L0 522.1L0 511.4Z" fill="#2a2a2a" stroke="#323232"></path><path d="M0 511.4L0 522.1L53 525.4Z" fill="#2a2a2a" stroke="#323232"></path><path d="M41 600L61 617.1L101 565.1Z" fill="#2a2a2a" stroke="#323232"></path><path d="M117 600L61 617.1L164 600Z" fill="#2a2a2a" stroke="#323232"></path><path d="M344 614.1L61 617.1L781 617.1Z" fill="#2a2a2a" stroke="#323232"></path><path d="M0 600L41 600L33 578.1Z" fill="#2a2a2a" stroke="#323232"></path><path d="M33 578.1L41 600L101 565.1Z" fill="#2a2a2a" stroke="#323232"></path><path d="M64 0L5 24.7L80 41.9Z" fill="#2a2a2a" stroke="#323232"></path><path d="M781 617.1L900 600L807 600Z" fill="#2a2a2a" stroke="#323232"></path><path d="M376 -21.1L0 0L64 0Z" fill="#2a2a2a" stroke="#323232"></path><path d="M64 0L0 0L5 24.7Z" fill="#2a2a2a" stroke="#323232"></path><path d="M5 24.7L0 0L0 57.9Z" fill="#2a2a2a" stroke="#323232"></path><path d="M0 57.9L0 0L-7 341.9Z" fill="#2a2a2a" stroke="#323232"></path><path d="M-15 600L0 600L0 522.1Z" fill="#2a2a2a" stroke="#323232"></path><path d="M0 522.1L0 600L33 578.1Z" fill="#2a2a2a" stroke="#323232"></path><path d="M41 600L0 600L61 617.1Z" fill="#2a2a2a" stroke="#323232"></path><path d="M-11 420.7L-15 600L-3 465.6Z" fill="#2a2a2a" stroke="#323232"></path><path d="M0 600L-15 600L61 617.1Z" fill="#2a2a2a" stroke="#323232"></path></g></svg>