<svg id="visual" viewBox="0 0 900 600" width="900" height="600" xmlns="http://www.w3.org/2000/svg" xmlns:xlink="http://www.w3.org/1999/xlink" version="1.1"><g stroke-width="1" stroke-linejoin="bevel"><path d="M470.7 322.2L515.7 294.1L481.7 274.9Z" fill="#2a2a2a" stroke="#353535"></path><path d="M515.7 294.1L520.1 281.1L481.7 274.9Z" fill="#2a2a2a" stroke="#353535"></path><path d="M515.7 294.1L535.1 271.9L520.1 281.1Z" fill="#2a2a2a" stroke="#353535"></path><path d="M520.1 281.1L501.7 227.6L481.7 274.9Z" fill="#2a2a2a" stroke="#353535"></path><path d="M456.7 256.8L454.3 258.8L481.7 274.9Z" fill="#2a2a2a" stroke="#353535"></path><path d="M481.7 274.9L454.3 258.8L470.7 322.2Z" fill="#2a2a2a" stroke="#353535"></path><path d="M501.7 227.6L456.7 256.8L481.7 274.9Z" fill="#2a2a2a" stroke="#353535"></path><path d="M535.1 271.9L501.7 227.6L520.1 281.1Z" fill="#2a2a2a" stroke="#353535"></path><path d="M454.3 258.8L416.3 306.1L470.7 322.2Z" fill="#2a2a2a" stroke="#353535"></path><path d="M470.7 322.2L555.1 336.2L515.7 294.1Z" fill="#2a2a2a" stroke="#353535"></path><path d="M515.7 294.1L555.1 336.2L535.1 271.9Z" fill="#2a2a2a" stroke="#353535"></path><path d="M581.8 254.9L564.4 250.9L543.1 261.8Z" fill="#2a2a2a" stroke="#353535"></path><path d="M538.4 231.8L501.7 227.6L535.1 271.9Z" fill="#2a2a2a" stroke="#353535"></path><path d="M456.7 256.8L434.3 248.9L454.3 258.8Z" fill="#2a2a2a" stroke="#353535"></path><path d="M454.3 258.8L434.3 248.9L416.3 306.1Z" fill="#2a2a2a" stroke="#353535"></path><path d="M501.7 227.6L434.3 248.9L456.7 256.8Z" fill="#2a2a2a" stroke="#353535"></path><path d="M564.4 250.9L538.4 231.8L543.1 261.8Z" fill="#2a2a2a" stroke="#353535"></path><path d="M543.1 261.8L538.4 231.8L535.1 271.9Z" fill="#2a2a2a" stroke="#353535"></path><path d="M434.3 248.9L402.9 308.9L416.3 306.1Z" fill="#2a2a2a" stroke="#353535"></path><path d="M416.3 306.1L447.3 393.2L470.7 322.2Z" fill="#2a2a2a" stroke="#353535"></path><path d="M480.7 429.4L555.1 336.2L470.7 322.2Z" fill="#2a2a2a" stroke="#353535"></path><path d="M555.4 412.4L565.4 348.1L555.1 336.2Z" fill="#2a2a2a" stroke="#353535"></path><path d="M581.8 254.9L543.1 261.8L535.1 271.9Z" fill="#2a2a2a" stroke="#353535"></path><path d="M581.8 254.9L535.1 271.9L555.1 336.2Z" fill="#2a2a2a" stroke="#353535"></path><path d="M402.9 308.9L447.3 393.2L416.3 306.1Z" fill="#2a2a2a" stroke="#353535"></path><path d="M594.4 334.2L581.8 254.9L555.1 336.2Z" fill="#2a2a2a" stroke="#353535"></path><path d="M564.4 250.9L608.8 223.8L538.4 231.8Z" fill="#2a2a2a" stroke="#353535"></path><path d="M565.4 348.1L594.4 334.2L555.1 336.2Z" fill="#2a2a2a" stroke="#353535"></path><path d="M447.3 393.2L480.7 429.4L470.7 322.2Z" fill="#2a2a2a" stroke="#353535"></path><path d="M565.4 348.1L632.2 357.1L594.4 334.2Z" fill="#2a2a2a" stroke="#353535"></path><path d="M480.7 429.4L555.4 412.4L555.1 336.2Z" fill="#2a2a2a" stroke="#353535"></path><path d="M447.3 393.2L476.7 434.5L480.7 429.4Z" fill="#2a2a2a" stroke="#353535"></path><path d="M480.7 429.4L535.1 435.5L555.4 412.4Z" fill="#2a2a2a" stroke="#353535"></path><path d="M393.9 195.8L366.6 247.8L434.3 248.9Z" fill="#2a2a2a" stroke="#353535"></path><path d="M434.3 248.9L366.6 247.8L402.9 308.9Z" fill="#2a2a2a" stroke="#353535"></path><path d="M402.9 308.9L382.9 392.4L447.3 393.2Z" fill="#2a2a2a" stroke="#353535"></path><path d="M366.6 247.8L355.9 317.1L402.9 308.9Z" fill="#2a2a2a" stroke="#353535"></path><path d="M447.3 393.2L396.3 448.4L476.7 434.5Z" fill="#2a2a2a" stroke="#353535"></path><path d="M355.9 317.1L382.9 392.4L402.9 308.9Z" fill="#2a2a2a" stroke="#353535"></path><path d="M514.1 452.4L535.1 435.5L480.7 429.4Z" fill="#2a2a2a" stroke="#353535"></path><path d="M428.3 150.5L434.3 248.9L501.7 227.6Z" fill="#2a2a2a" stroke="#353535"></path><path d="M428.3 150.5L393.9 195.8L434.3 248.9Z" fill="#2a2a2a" stroke="#353535"></path><path d="M581.8 254.9L608.8 223.8L564.4 250.9Z" fill="#2a2a2a" stroke="#353535"></path><path d="M538.4 231.8L543.4 161.6L501.7 227.6Z" fill="#2a2a2a" stroke="#353535"></path><path d="M672.5 298.1L608.8 223.8L581.8 254.9Z" fill="#2a2a2a" stroke="#353535"></path><path d="M562.1 166.6L543.4 161.6L538.4 231.8Z" fill="#2a2a2a" stroke="#353535"></path><path d="M355.9 317.1L369.9 394.2L382.9 392.4Z" fill="#2a2a2a" stroke="#353535"></path><path d="M396.3 448.4L479.7 461.7L476.7 434.5Z" fill="#2a2a2a" stroke="#353535"></path><path d="M479.7 461.7L514.1 452.4L476.7 434.5Z" fill="#2a2a2a" stroke="#353535"></path><path d="M476.7 434.5L514.1 452.4L480.7 429.4Z" fill="#2a2a2a" stroke="#353535"></path><path d="M608.8 223.8L562.1 166.6L538.4 231.8Z" fill="#2a2a2a" stroke="#353535"></path><path d="M614.8 426.5L632.2 357.1L565.4 348.1Z" fill="#2a2a2a" stroke="#353535"></path><path d="M594.4 334.2L672.5 298.1L581.8 254.9Z" fill="#2a2a2a" stroke="#353535"></path><path d="M652.8 349.1L632.2 357.1L667.2 405.4Z" fill="#2a2a2a" stroke="#353535"></path><path d="M396.3 448.4L447.3 393.2L382.9 392.4Z" fill="#2a2a2a" stroke="#353535"></path><path d="M514.7 138.5L428.3 150.5L501.7 227.6Z" fill="#2a2a2a" stroke="#353535"></path><path d="M544.4 130.5L514.7 138.5L543.4 161.6Z" fill="#2a2a2a" stroke="#353535"></path><path d="M543.4 161.6L514.7 138.5L501.7 227.6Z" fill="#2a2a2a" stroke="#353535"></path><path d="M355.9 317.1L348.6 397.2L369.9 394.2Z" fill="#2a2a2a" stroke="#353535"></path><path d="M369.9 394.2L396.3 448.4L382.9 392.4Z" fill="#2a2a2a" stroke="#353535"></path><path d="M614.8 426.5L565.4 348.1L555.4 412.4Z" fill="#2a2a2a" stroke="#353535"></path><path d="M632.2 357.1L652.8 349.1L594.4 334.2Z" fill="#2a2a2a" stroke="#353535"></path><path d="M614.8 426.5L555.4 412.4L568.4 485.5Z" fill="#2a2a2a" stroke="#353535"></path><path d="M676.2 235.9L627.8 200.6L608.8 223.8Z" fill="#2a2a2a" stroke="#353535"></path><path d="M608.8 223.8L627.8 200.6L562.1 166.6Z" fill="#2a2a2a" stroke="#353535"></path><path d="M562.1 166.6L544.4 130.5L543.4 161.6Z" fill="#2a2a2a" stroke="#353535"></path><path d="M428.3 150.5L415.3 145.6L393.9 195.8Z" fill="#2a2a2a" stroke="#353535"></path><path d="M305.6 269.9L311.6 279.1L366.6 247.8Z" fill="#2a2a2a" stroke="#353535"></path><path d="M432.3 112.3L415.3 145.6L428.3 150.5Z" fill="#2a2a2a" stroke="#353535"></path><path d="M348.6 397.2L396.3 448.4L369.9 394.2Z" fill="#2a2a2a" stroke="#353535"></path><path d="M568.4 485.5L535.1 435.5L514.1 452.4Z" fill="#2a2a2a" stroke="#353535"></path><path d="M568.4 485.5L555.4 412.4L535.1 435.5Z" fill="#2a2a2a" stroke="#353535"></path><path d="M305.6 269.9L366.6 247.8L337.9 189.6Z" fill="#2a2a2a" stroke="#353535"></path><path d="M366.6 247.8L311.6 279.1L355.9 317.1Z" fill="#2a2a2a" stroke="#353535"></path><path d="M355.9 317.1L291.2 364.2L348.6 397.2Z" fill="#2a2a2a" stroke="#353535"></path><path d="M600.8 133.5L544.4 130.5L562.1 166.6Z" fill="#2a2a2a" stroke="#353535"></path><path d="M514.7 138.5L503.1 113.3L428.3 150.5Z" fill="#2a2a2a" stroke="#353535"></path><path d="M652.8 349.1L672.5 298.1L594.4 334.2Z" fill="#2a2a2a" stroke="#353535"></path><path d="M337.9 189.6L366.6 247.8L393.9 195.8Z" fill="#2a2a2a" stroke="#353535"></path><path d="M311.6 279.1L291.2 364.2L355.9 317.1Z" fill="#2a2a2a" stroke="#353535"></path><path d="M614.8 426.5L643.2 408.2L632.2 357.1Z" fill="#2a2a2a" stroke="#353535"></path><path d="M652.8 349.1L700.5 368.4L672.5 298.1Z" fill="#2a2a2a" stroke="#353535"></path><path d="M337.6 176.6L337.9 189.6L393.9 195.8Z" fill="#2a2a2a" stroke="#353535"></path><path d="M544.4 130.5L503.1 113.3L514.7 138.5Z" fill="#2a2a2a" stroke="#353535"></path><path d="M359.9 133.5L337.6 176.6L393.9 195.8Z" fill="#2a2a2a" stroke="#353535"></path><path d="M267.2 247.8L283.2 276.9L305.6 269.9Z" fill="#2a2a2a" stroke="#353535"></path><path d="M503.1 113.3L432.3 112.3L428.3 150.5Z" fill="#2a2a2a" stroke="#353535"></path><path d="M415.3 145.6L359.9 133.5L393.9 195.8Z" fill="#2a2a2a" stroke="#353535"></path><path d="M672.5 298.1L676.2 235.9L608.8 223.8Z" fill="#2a2a2a" stroke="#353535"></path><path d="M627.8 200.6L600.8 133.5L562.1 166.6Z" fill="#2a2a2a" stroke="#353535"></path><path d="M552.1 519.7L514.1 452.4L479.7 461.7Z" fill="#2a2a2a" stroke="#353535"></path><path d="M552.1 519.7L568.4 485.5L514.1 452.4Z" fill="#2a2a2a" stroke="#353535"></path><path d="M650.8 425.4L661.8 408.2L643.2 408.2Z" fill="#2a2a2a" stroke="#353535"></path><path d="M629.2 136.5L600.8 133.5L627.8 200.6Z" fill="#2a2a2a" stroke="#353535"></path><path d="M544.4 130.5L545.1 93.5L503.1 113.3Z" fill="#2a2a2a" stroke="#353535"></path><path d="M650.8 425.4L643.2 408.2L614.8 426.5Z" fill="#2a2a2a" stroke="#353535"></path><path d="M643.2 408.2L667.2 405.4L632.2 357.1Z" fill="#2a2a2a" stroke="#353535"></path><path d="M637.2 454.5L650.8 425.4L614.8 426.5Z" fill="#2a2a2a" stroke="#353535"></path><path d="M650.8 425.4L667.2 405.4L661.8 408.2Z" fill="#2a2a2a" stroke="#353535"></path><path d="M661.8 408.2L667.2 405.4L643.2 408.2Z" fill="#2a2a2a" stroke="#353535"></path><path d="M714.9 285.1L701.5 237.8L676.2 235.9Z" fill="#2a2a2a" stroke="#353535"></path><path d="M305.2 188.6L305.6 269.9L337.9 189.6Z" fill="#2a2a2a" stroke="#353535"></path><path d="M305.6 269.9L283.2 276.9L311.6 279.1Z" fill="#2a2a2a" stroke="#353535"></path><path d="M283.2 276.9L291.2 364.2L311.6 279.1Z" fill="#2a2a2a" stroke="#353535"></path><path d="M355.9 499.5L397.3 493.5L396.3 448.4Z" fill="#2a2a2a" stroke="#353535"></path><path d="M378.9 117.3L359.9 133.5L415.3 145.6Z" fill="#2a2a2a" stroke="#353535"></path><path d="M337.6 176.6L305.2 188.6L337.9 189.6Z" fill="#2a2a2a" stroke="#353535"></path><path d="M355.9 499.5L396.3 448.4L319.6 479.7Z" fill="#2a2a2a" stroke="#353535"></path><path d="M396.3 448.4L397.3 493.5L479.7 461.7Z" fill="#2a2a2a" stroke="#353535"></path><path d="M568.4 485.5L637.2 454.5L614.8 426.5Z" fill="#2a2a2a" stroke="#353535"></path><path d="M650.8 425.4L687.5 477.5L667.2 405.4Z" fill="#2a2a2a" stroke="#353535"></path><path d="M432.3 112.3L378.9 117.3L415.3 145.6Z" fill="#2a2a2a" stroke="#353535"></path><path d="M600.8 133.5L545.1 93.5L544.4 130.5Z" fill="#2a2a2a" stroke="#353535"></path><path d="M503.1 113.3L465.7 57.3L432.3 112.3Z" fill="#2a2a2a" stroke="#353535"></path><path d="M364.6 73.3L360.6 78.2L378.9 117.3Z" fill="#2a2a2a" stroke="#353535"></path><path d="M294.2 145.5L305.2 188.6L337.6 176.6Z" fill="#2a2a2a" stroke="#353535"></path><path d="M679.2 179.6L629.2 136.5L627.8 200.6Z" fill="#2a2a2a" stroke="#353535"></path><path d="M600.8 133.5L602.8 80.2L545.1 93.5Z" fill="#2a2a2a" stroke="#353535"></path><path d="M744.9 357.2L700.5 368.4L741.5 411.2Z" fill="#2a2a2a" stroke="#353535"></path><path d="M667.2 405.4L700.5 368.4L652.8 349.1Z" fill="#2a2a2a" stroke="#353535"></path><path d="M714.9 285.1L676.2 235.9L672.5 298.1Z" fill="#2a2a2a" stroke="#353535"></path><path d="M693.2 202.8L679.2 179.6L627.8 200.6Z" fill="#2a2a2a" stroke="#353535"></path><path d="M560.4 50.3L520.1 78.2L545.1 93.5Z" fill="#2a2a2a" stroke="#353535"></path><path d="M545.1 93.5L520.1 78.2L503.1 113.3Z" fill="#2a2a2a" stroke="#353535"></path><path d="M693.2 202.8L627.8 200.6L676.2 235.9Z" fill="#2a2a2a" stroke="#353535"></path><path d="M743.5 310.9L714.9 285.1L672.5 298.1Z" fill="#2a2a2a" stroke="#353535"></path><path d="M720.9 242.8L693.2 202.8L701.5 237.8Z" fill="#2a2a2a" stroke="#353535"></path><path d="M701.5 237.8L693.2 202.8L676.2 235.9Z" fill="#2a2a2a" stroke="#353535"></path><path d="M481.1 549.8L552.1 519.7L479.7 461.7Z" fill="#2a2a2a" stroke="#353535"></path><path d="M568.4 485.5L599.8 542.7L637.2 454.5Z" fill="#2a2a2a" stroke="#353535"></path><path d="M277.2 421.4L290.6 413.4L240.8 388.4Z" fill="#2a2a2a" stroke="#353535"></path><path d="M291.2 364.2L290.6 413.4L348.6 397.2Z" fill="#2a2a2a" stroke="#353535"></path><path d="M271.8 205.6L267.2 247.8L305.6 269.9Z" fill="#2a2a2a" stroke="#353535"></path><path d="M283.2 276.9L262.2 352.1L291.2 364.2Z" fill="#2a2a2a" stroke="#353535"></path><path d="M228.8 294.9L262.2 352.1L283.2 276.9Z" fill="#2a2a2a" stroke="#353535"></path><path d="M393.9 523.7L427.3 527.7L397.3 493.5Z" fill="#2a2a2a" stroke="#353535"></path><path d="M397.3 493.5L427.3 527.7L479.7 461.7Z" fill="#2a2a2a" stroke="#353535"></path><path d="M355.9 499.5L387.9 515.8L397.3 493.5Z" fill="#2a2a2a" stroke="#353535"></path><path d="M294.2 145.5L271.8 205.6L305.2 188.6Z" fill="#2a2a2a" stroke="#353535"></path><path d="M305.2 188.6L271.8 205.6L305.6 269.9Z" fill="#2a2a2a" stroke="#353535"></path><path d="M317.2 131.3L337.6 176.6L359.9 133.5Z" fill="#2a2a2a" stroke="#353535"></path><path d="M560.4 50.3L495.7 64.2L520.1 78.2Z" fill="#2a2a2a" stroke="#353535"></path><path d="M520.1 78.2L495.7 64.2L503.1 113.3Z" fill="#2a2a2a" stroke="#353535"></path><path d="M679.2 179.6L635.8 114.3L629.2 136.5Z" fill="#2a2a2a" stroke="#353535"></path><path d="M629.2 136.5L635.8 114.3L600.8 133.5Z" fill="#2a2a2a" stroke="#353535"></path><path d="M319.6 479.7L396.3 448.4L348.6 397.2Z" fill="#2a2a2a" stroke="#353535"></path><path d="M714.9 285.1L720.9 242.8L701.5 237.8Z" fill="#2a2a2a" stroke="#353535"></path><path d="M685.5 78.2L635.8 114.3L679.2 179.6Z" fill="#2a2a2a" stroke="#353535"></path><path d="M355.9 499.5L393.9 523.7L387.9 515.8Z" fill="#2a2a2a" stroke="#353535"></path><path d="M387.9 515.8L393.9 523.7L397.3 493.5Z" fill="#2a2a2a" stroke="#353535"></path><path d="M360.6 78.2L359.9 133.5L378.9 117.3Z" fill="#2a2a2a" stroke="#353535"></path><path d="M360.6 78.2L317.2 131.3L359.9 133.5Z" fill="#2a2a2a" stroke="#353535"></path><path d="M240.8 388.4L290.6 413.4L291.2 364.2Z" fill="#2a2a2a" stroke="#353535"></path><path d="M290.6 413.4L319.6 479.7L348.6 397.2Z" fill="#2a2a2a" stroke="#353535"></path><path d="M495.7 64.2L465.7 57.3L503.1 113.3Z" fill="#2a2a2a" stroke="#353535"></path><path d="M301.2 474.5L319.6 479.7L290.6 413.4Z" fill="#2a2a2a" stroke="#353535"></path><path d="M409.3 600L431.7 563.8L396.3 599.8Z" fill="#2a2a2a" stroke="#353535"></path><path d="M431.7 563.8L481.1 549.8L427.3 527.7Z" fill="#2a2a2a" stroke="#353535"></path><path d="M427.3 527.7L481.1 549.8L479.7 461.7Z" fill="#2a2a2a" stroke="#353535"></path><path d="M635.8 114.3L602.8 80.2L600.8 133.5Z" fill="#2a2a2a" stroke="#353535"></path><path d="M417.3 0L415.3 19.2L465.7 57.3Z" fill="#2a2a2a" stroke="#353535"></path><path d="M317.2 131.3L294.2 145.5L337.6 176.6Z" fill="#2a2a2a" stroke="#353535"></path><path d="M714.9 285.1L735.9 247.9L720.9 242.8Z" fill="#2a2a2a" stroke="#353535"></path><path d="M790.9 173.6L734.5 145.6L693.2 202.8Z" fill="#2a2a2a" stroke="#353535"></path><path d="M685.5 78.2L658.2 79.3L635.8 114.3Z" fill="#2a2a2a" stroke="#353535"></path><path d="M743.5 310.9L735.9 247.9L714.9 285.1Z" fill="#2a2a2a" stroke="#353535"></path><path d="M744.9 357.2L743.5 310.9L700.5 368.4Z" fill="#2a2a2a" stroke="#353535"></path><path d="M700.5 368.4L743.5 310.9L672.5 298.1Z" fill="#2a2a2a" stroke="#353535"></path><path d="M319.6 479.7L309.6 504.5L355.9 499.5Z" fill="#2a2a2a" stroke="#353535"></path><path d="M277.2 421.4L301.2 474.5L290.6 413.4Z" fill="#2a2a2a" stroke="#353535"></path><path d="M364.6 73.3L378.9 117.3L432.3 112.3Z" fill="#2a2a2a" stroke="#353535"></path><path d="M317.2 131.3L293.6 130.5L294.2 145.5Z" fill="#2a2a2a" stroke="#353535"></path><path d="M263.8 92.5L293.6 130.5L317.2 131.3Z" fill="#2a2a2a" stroke="#353535"></path><path d="M294.2 145.5L278.8 138.3L271.8 205.6Z" fill="#2a2a2a" stroke="#353535"></path><path d="M415.3 19.2L364.6 73.3L432.3 112.3Z" fill="#2a2a2a" stroke="#353535"></path><path d="M360.6 78.2L263.8 92.5L317.2 131.3Z" fill="#2a2a2a" stroke="#353535"></path><path d="M219.8 262.8L228.8 294.9L267.2 247.8Z" fill="#2a2a2a" stroke="#353535"></path><path d="M267.2 247.8L228.8 294.9L283.2 276.9Z" fill="#2a2a2a" stroke="#353535"></path><path d="M262.2 352.1L240.8 388.4L291.2 364.2Z" fill="#2a2a2a" stroke="#353535"></path><path d="M219.8 262.8L267.2 247.8L271.8 205.6Z" fill="#2a2a2a" stroke="#353535"></path><path d="M528.4 564.8L570.4 549.7L552.1 519.7Z" fill="#2a2a2a" stroke="#353535"></path><path d="M552.1 519.7L599.8 542.7L568.4 485.5Z" fill="#2a2a2a" stroke="#353535"></path><path d="M741.5 411.2L700.5 368.4L667.2 405.4Z" fill="#2a2a2a" stroke="#353535"></path><path d="M602.8 80.2L560.4 50.3L545.1 93.5Z" fill="#2a2a2a" stroke="#353535"></path><path d="M687.5 477.5L650.8 425.4L637.2 454.5Z" fill="#2a2a2a" stroke="#353535"></path><path d="M205.8 354.2L240.8 388.4L262.2 352.1Z" fill="#2a2a2a" stroke="#353535"></path><path d="M277.2 421.4L226.5 474.7L301.2 474.5Z" fill="#2a2a2a" stroke="#353535"></path><path d="M675.5 547.7L687.5 477.5L637.2 454.5Z" fill="#2a2a2a" stroke="#353535"></path><path d="M570.4 549.7L599.8 542.7L552.1 519.7Z" fill="#2a2a2a" stroke="#353535"></path><path d="M263.8 92.5L278.8 138.3L293.6 130.5Z" fill="#2a2a2a" stroke="#353535"></path><path d="M293.6 130.5L278.8 138.3L294.2 145.5Z" fill="#2a2a2a" stroke="#353535"></path><path d="M495.7 600L528.4 564.8L481.1 549.8Z" fill="#2a2a2a" stroke="#353535"></path><path d="M481.1 549.8L528.4 564.8L552.1 519.7Z" fill="#2a2a2a" stroke="#353535"></path><path d="M605.8 600L612.8 596.8L599.8 542.7Z" fill="#2a2a2a" stroke="#353535"></path><path d="M396.3 599.8L393.9 523.7L376.6 596.8Z" fill="#2a2a2a" stroke="#353535"></path><path d="M393.9 523.7L431.7 563.8L427.3 527.7Z" fill="#2a2a2a" stroke="#353535"></path><path d="M247.2 525.8L309.6 504.5L301.2 474.5Z" fill="#2a2a2a" stroke="#353535"></path><path d="M301.2 474.5L309.6 504.5L319.6 479.7Z" fill="#2a2a2a" stroke="#353535"></path><path d="M193.5 267.9L219.8 262.8L186.5 237.8Z" fill="#2a2a2a" stroke="#353535"></path><path d="M228.8 294.9L206.8 333.1L262.2 352.1Z" fill="#2a2a2a" stroke="#353535"></path><path d="M687.5 477.5L741.5 411.2L667.2 405.4Z" fill="#2a2a2a" stroke="#353535"></path><path d="M734.5 145.6L679.2 179.6L693.2 202.8Z" fill="#2a2a2a" stroke="#353535"></path><path d="M635.8 114.3L658.2 79.3L602.8 80.2Z" fill="#2a2a2a" stroke="#353535"></path><path d="M602.8 80.2L574.4 20.2L560.4 50.3Z" fill="#2a2a2a" stroke="#353535"></path><path d="M193.5 267.9L206.8 333.1L228.8 294.9Z" fill="#2a2a2a" stroke="#353535"></path><path d="M198.8 439.5L226.5 474.7L277.2 421.4Z" fill="#2a2a2a" stroke="#353535"></path><path d="M793.3 388.2L761.9 387.4L794.3 421.5Z" fill="#2a2a2a" stroke="#353535"></path><path d="M741.5 411.2L761.9 387.4L744.9 357.2Z" fill="#2a2a2a" stroke="#353535"></path><path d="M744.9 357.2L779.3 350.1L743.5 310.9Z" fill="#2a2a2a" stroke="#353535"></path><path d="M743.5 310.9L801.3 275.9L735.9 247.9Z" fill="#2a2a2a" stroke="#353535"></path><path d="M206.8 333.1L205.8 354.2L262.2 352.1Z" fill="#2a2a2a" stroke="#353535"></path><path d="M790.9 173.6L693.2 202.8L720.9 242.8Z" fill="#2a2a2a" stroke="#353535"></path><path d="M790.9 173.6L720.9 242.8L735.9 247.9Z" fill="#2a2a2a" stroke="#353535"></path><path d="M505.7 0L465.7 57.3L495.7 64.2Z" fill="#2a2a2a" stroke="#353535"></path><path d="M465.7 57.3L415.3 19.2L432.3 112.3Z" fill="#2a2a2a" stroke="#353535"></path><path d="M282.8 32.2L263.8 92.5L360.6 78.2Z" fill="#2a2a2a" stroke="#353535"></path><path d="M588.4 0L574.4 20.2L612.8 0Z" fill="#2a2a2a" stroke="#353535"></path><path d="M560.4 50.3L505.7 0L495.7 64.2Z" fill="#2a2a2a" stroke="#353535"></path><path d="M761.9 387.4L779.3 350.1L744.9 357.2Z" fill="#2a2a2a" stroke="#353535"></path><path d="M703.5 515.8L706.2 503.7L687.5 477.5Z" fill="#2a2a2a" stroke="#353535"></path><path d="M687.5 477.5L741.9 470.7L741.5 411.2Z" fill="#2a2a2a" stroke="#353535"></path><path d="M186.5 237.8L219.8 262.8L271.8 205.6Z" fill="#2a2a2a" stroke="#353535"></path><path d="M219.8 262.8L193.5 267.9L228.8 294.9Z" fill="#2a2a2a" stroke="#353535"></path><path d="M206.8 333.1L184.5 358.2L205.8 354.2Z" fill="#2a2a2a" stroke="#353535"></path><path d="M735.9 131.3L685.5 78.2L679.2 179.6Z" fill="#2a2a2a" stroke="#353535"></path><path d="M612.8 0L574.4 20.2L602.8 80.2Z" fill="#2a2a2a" stroke="#353535"></path><path d="M475.1 600L495.7 600L481.1 549.8Z" fill="#2a2a2a" stroke="#353535"></path><path d="M528.4 564.8L570.4 600L570.4 549.7Z" fill="#2a2a2a" stroke="#353535"></path><path d="M675.5 547.7L703.5 515.8L687.5 477.5Z" fill="#2a2a2a" stroke="#353535"></path><path d="M475.1 600L481.1 549.8L431.7 563.8Z" fill="#2a2a2a" stroke="#353535"></path><path d="M409.3 600L475.1 600L431.7 563.8Z" fill="#2a2a2a" stroke="#353535"></path><path d="M768.9 119.5L735.9 131.3L775.3 125.3Z" fill="#2a2a2a" stroke="#353535"></path><path d="M734.5 145.6L735.9 131.3L679.2 179.6Z" fill="#2a2a2a" stroke="#353535"></path><path d="M556.1 0L505.7 0L560.4 50.3Z" fill="#2a2a2a" stroke="#353535"></path><path d="M707.2 515.8L703.5 515.8L675.5 547.7Z" fill="#2a2a2a" stroke="#353535"></path><path d="M706.2 503.7L741.9 470.7L687.5 477.5Z" fill="#2a2a2a" stroke="#353535"></path><path d="M761.9 387.4L793.3 388.2L779.3 350.1Z" fill="#2a2a2a" stroke="#353535"></path><path d="M739.9 527.8L741.9 470.7L706.2 503.7Z" fill="#2a2a2a" stroke="#353535"></path><path d="M675.5 547.7L637.2 454.5L599.8 542.7Z" fill="#2a2a2a" stroke="#353535"></path><path d="M703.5 515.8L707.2 515.8L706.2 503.7Z" fill="#2a2a2a" stroke="#353535"></path><path d="M282.8 32.2L360.6 78.2L364.6 73.3Z" fill="#2a2a2a" stroke="#353535"></path><path d="M153.5 209.6L186.5 237.8L156.1 165.6Z" fill="#2a2a2a" stroke="#353535"></path><path d="M620.2 600L675.5 547.7L599.8 542.7Z" fill="#2a2a2a" stroke="#353535"></path><path d="M396.3 599.8L431.7 563.8L393.9 523.7Z" fill="#2a2a2a" stroke="#353535"></path><path d="M588.4 0L556.1 0L574.4 20.2Z" fill="#2a2a2a" stroke="#353535"></path><path d="M574.4 20.2L556.1 0L560.4 50.3Z" fill="#2a2a2a" stroke="#353535"></path><path d="M186.5 237.8L271.8 205.6L156.1 165.6Z" fill="#2a2a2a" stroke="#353535"></path><path d="M164.5 334.1L184.5 358.2L206.8 333.1Z" fill="#2a2a2a" stroke="#353535"></path><path d="M495.7 600L570.4 600L528.4 564.8Z" fill="#2a2a2a" stroke="#353535"></path><path d="M164.5 334.1L206.8 333.1L159.1 280.1Z" fill="#2a2a2a" stroke="#353535"></path><path d="M205.8 354.2L184.5 358.2L240.8 388.4Z" fill="#2a2a2a" stroke="#353535"></path><path d="M505.7 0L417.3 0L465.7 57.3Z" fill="#2a2a2a" stroke="#353535"></path><path d="M415.3 19.2L369.9 0.2L364.6 73.3Z" fill="#2a2a2a" stroke="#353535"></path><path d="M376.6 596.8L393.9 523.7L355.9 499.5Z" fill="#2a2a2a" stroke="#353535"></path><path d="M779.3 350.1L801.3 275.9L743.5 310.9Z" fill="#2a2a2a" stroke="#353535"></path><path d="M750.5 98.5L691.5 61.3L685.5 78.2Z" fill="#2a2a2a" stroke="#353535"></path><path d="M685.5 78.2L691.5 61.3L658.2 79.3Z" fill="#2a2a2a" stroke="#353535"></path><path d="M198.8 439.5L277.2 421.4L240.8 388.4Z" fill="#2a2a2a" stroke="#353535"></path><path d="M370.6 600L376.6 596.8L355.9 499.5Z" fill="#2a2a2a" stroke="#353535"></path><path d="M370.6 600L355.9 499.5L309.6 504.5Z" fill="#2a2a2a" stroke="#353535"></path><path d="M376.6 596.8L384.9 600L396.3 599.8Z" fill="#2a2a2a" stroke="#353535"></path><path d="M396.3 599.8L384.9 600L409.3 600Z" fill="#2a2a2a" stroke="#353535"></path><path d="M794.3 421.5L761.9 387.4L741.5 411.2Z" fill="#2a2a2a" stroke="#353535"></path><path d="M832.6 331.2L820.3 271.8L801.3 275.9Z" fill="#2a2a2a" stroke="#353535"></path><path d="M612.8 0L602.8 80.2L658.2 79.3Z" fill="#2a2a2a" stroke="#353535"></path><path d="M605.8 600L599.8 542.7L570.4 549.7Z" fill="#2a2a2a" stroke="#353535"></path><path d="M570.4 600L605.8 600L570.4 549.7Z" fill="#2a2a2a" stroke="#353535"></path><path d="M281.2 549.7L370.6 600L309.6 504.5Z" fill="#2a2a2a" stroke="#353535"></path><path d="M376.6 596.8L370.6 600L384.9 600Z" fill="#2a2a2a" stroke="#353535"></path><path d="M184.5 358.2L198.8 439.5L240.8 388.4Z" fill="#2a2a2a" stroke="#353535"></path><path d="M247.2 525.8L301.2 474.5L226.5 474.7Z" fill="#2a2a2a" stroke="#353535"></path><path d="M247.2 525.8L281.2 549.7L309.6 504.5Z" fill="#2a2a2a" stroke="#353535"></path><path d="M820.3 271.8L810.6 262.8L801.3 275.9Z" fill="#2a2a2a" stroke="#353535"></path><path d="M801.3 275.9L810.6 262.8L735.9 247.9Z" fill="#2a2a2a" stroke="#353535"></path><path d="M417.3 0L369.9 0.2L415.3 19.2Z" fill="#2a2a2a" stroke="#353535"></path><path d="M605.8 600L620.2 600L612.8 596.8Z" fill="#2a2a2a" stroke="#353535"></path><path d="M612.8 596.8L620.2 600L599.8 542.7Z" fill="#2a2a2a" stroke="#353535"></path><path d="M666.5 0L612.8 0L658.2 79.3Z" fill="#2a2a2a" stroke="#353535"></path><path d="M159.1 280.1L206.8 333.1L193.5 267.9Z" fill="#2a2a2a" stroke="#353535"></path><path d="M129.1 406.4L182.5 448.4L198.8 439.5Z" fill="#2a2a2a" stroke="#353535"></path><path d="M818.6 234.9L790.9 173.6L735.9 247.9Z" fill="#2a2a2a" stroke="#353535"></path><path d="M735.9 131.3L750.5 98.5L685.5 78.2Z" fill="#2a2a2a" stroke="#353535"></path><path d="M741.9 470.7L794.3 421.5L741.5 411.2Z" fill="#2a2a2a" stroke="#353535"></path><path d="M832.6 331.2L801.3 275.9L779.3 350.1Z" fill="#2a2a2a" stroke="#353535"></path><path d="M794.9 493.5L794.3 421.5L741.9 470.7Z" fill="#2a2a2a" stroke="#353535"></path><path d="M369.9 0.2L356.9 0L364.6 73.3Z" fill="#2a2a2a" stroke="#353535"></path><path d="M417.3 0L356.9 0L369.9 0.2Z" fill="#2a2a2a" stroke="#353535"></path><path d="M217.5 517.8L247.2 525.8L226.5 474.7Z" fill="#2a2a2a" stroke="#353535"></path><path d="M134.1 247.8L159.1 280.1L186.5 237.8Z" fill="#2a2a2a" stroke="#353535"></path><path d="M186.5 237.8L159.1 280.1L193.5 267.9Z" fill="#2a2a2a" stroke="#353535"></path><path d="M768.9 119.5L750.5 98.5L735.9 131.3Z" fill="#2a2a2a" stroke="#353535"></path><path d="M691.5 61.3L688.2 25.2L658.2 79.3Z" fill="#2a2a2a" stroke="#353535"></path><path d="M821.6 378.4L779.3 350.1L793.3 388.2Z" fill="#2a2a2a" stroke="#353535"></path><path d="M810.6 262.8L818.6 234.9L735.9 247.9Z" fill="#2a2a2a" stroke="#353535"></path><path d="M356.9 0L347.6 0L364.6 73.3Z" fill="#2a2a2a" stroke="#353535"></path><path d="M775.3 125.3L735.9 131.3L734.5 145.6Z" fill="#2a2a2a" stroke="#353535"></path><path d="M217.5 517.8L251.8 538.7L247.2 525.8Z" fill="#2a2a2a" stroke="#353535"></path><path d="M247.2 525.8L251.8 538.7L281.2 549.7Z" fill="#2a2a2a" stroke="#353535"></path><path d="M281.2 549.7L254.2 600L370.6 600Z" fill="#2a2a2a" stroke="#353535"></path><path d="M790.9 173.6L775.3 125.3L734.5 145.6Z" fill="#2a2a2a" stroke="#353535"></path><path d="M768.9 119.5L771.3 111.5L750.5 98.5Z" fill="#2a2a2a" stroke="#353535"></path><path d="M820.3 271.8L818.6 234.9L810.6 262.8Z" fill="#2a2a2a" stroke="#353535"></path><path d="M790.9 173.6L844.6 114.5L775.3 125.3Z" fill="#2a2a2a" stroke="#353535"></path><path d="M675.5 547.7L739.9 527.8L707.2 515.8Z" fill="#2a2a2a" stroke="#353535"></path><path d="M707.2 515.8L739.9 527.8L706.2 503.7Z" fill="#2a2a2a" stroke="#353535"></path><path d="M753.9 600L739.9 527.8L675.5 547.7Z" fill="#2a2a2a" stroke="#353535"></path><path d="M347.6 0L282.8 32.2L364.6 73.3Z" fill="#2a2a2a" stroke="#353535"></path><path d="M156.1 165.6L271.8 205.6L169.1 135.5Z" fill="#2a2a2a" stroke="#353535"></path><path d="M134.7 382.2L198.8 439.5L184.5 358.2Z" fill="#2a2a2a" stroke="#353535"></path><path d="M198.8 439.5L182.5 448.4L226.5 474.7Z" fill="#2a2a2a" stroke="#353535"></path><path d="M844.6 114.5L771.3 111.5L775.3 125.3Z" fill="#2a2a2a" stroke="#353535"></path><path d="M775.3 125.3L771.3 111.5L768.9 119.5Z" fill="#2a2a2a" stroke="#353535"></path><path d="M736.9 0L688.2 25.2L691.5 61.3Z" fill="#2a2a2a" stroke="#353535"></path><path d="M685.2 0L688.2 25.2L736.9 0Z" fill="#2a2a2a" stroke="#353535"></path><path d="M815.6 426.5L793.3 388.2L794.3 421.5Z" fill="#2a2a2a" stroke="#353535"></path><path d="M815.6 426.5L821.6 378.4L793.3 388.2Z" fill="#2a2a2a" stroke="#353535"></path><path d="M821.6 378.4L832.6 331.2L779.3 350.1Z" fill="#2a2a2a" stroke="#353535"></path><path d="M852.6 195.6L831.3 181.6L818.6 234.9Z" fill="#2a2a2a" stroke="#353535"></path><path d="M739.9 527.8L765.3 510.8L741.9 470.7Z" fill="#2a2a2a" stroke="#353535"></path><path d="M151.5 476.5L217.5 517.8L226.5 474.7Z" fill="#2a2a2a" stroke="#353535"></path><path d="M197.5 96.5L278.8 138.3L263.8 92.5Z" fill="#2a2a2a" stroke="#353535"></path><path d="M794.9 493.5L815.6 426.5L794.3 421.5Z" fill="#2a2a2a" stroke="#353535"></path><path d="M821.6 378.4L832.3 371.4L832.6 331.2Z" fill="#2a2a2a" stroke="#353535"></path><path d="M688.2 25.2L666.5 0L658.2 79.3Z" fill="#2a2a2a" stroke="#353535"></path><path d="M685.2 0L666.5 0L688.2 25.2Z" fill="#2a2a2a" stroke="#353535"></path><path d="M815.6 426.5L832.3 371.4L821.6 378.4Z" fill="#2a2a2a" stroke="#353535"></path><path d="M217.5 44.2L197.5 96.5L263.8 92.5Z" fill="#2a2a2a" stroke="#353535"></path><path d="M108.7 179.5L134.1 247.8L153.5 209.6Z" fill="#2a2a2a" stroke="#353535"></path><path d="M153.5 209.6L134.1 247.8L186.5 237.8Z" fill="#2a2a2a" stroke="#353535"></path><path d="M115.1 318.9L133.7 368.1L164.5 334.1Z" fill="#2a2a2a" stroke="#353535"></path><path d="M164.5 334.1L133.7 368.1L184.5 358.2Z" fill="#2a2a2a" stroke="#353535"></path><path d="M169.1 135.5L271.8 205.6L278.8 138.3Z" fill="#2a2a2a" stroke="#353535"></path><path d="M736.9 0L691.5 61.3L779.9 31.2Z" fill="#2a2a2a" stroke="#353535"></path><path d="M197.5 96.5L169.1 135.5L278.8 138.3Z" fill="#2a2a2a" stroke="#353535"></path><path d="M833.3 543.7L794.9 493.5L765.3 510.8Z" fill="#2a2a2a" stroke="#353535"></path><path d="M765.3 510.8L794.9 493.5L741.9 470.7Z" fill="#2a2a2a" stroke="#353535"></path><path d="M115.1 318.9L164.5 334.1L159.1 280.1Z" fill="#2a2a2a" stroke="#353535"></path><path d="M182.5 448.4L151.5 476.5L226.5 474.7Z" fill="#2a2a2a" stroke="#353535"></path><path d="M852.6 195.6L818.6 234.9L900 256.8Z" fill="#2a2a2a" stroke="#353535"></path><path d="M818.6 234.9L831.3 181.6L790.9 173.6Z" fill="#2a2a2a" stroke="#353535"></path><path d="M779.9 31.2L691.5 61.3L750.5 98.5Z" fill="#2a2a2a" stroke="#353535"></path><path d="M133.7 368.1L134.7 382.2L184.5 358.2Z" fill="#2a2a2a" stroke="#353535"></path><path d="M217.5 517.8L237.8 569.8L251.8 538.7Z" fill="#2a2a2a" stroke="#353535"></path><path d="M251.8 538.7L237.8 569.8L281.2 549.7Z" fill="#2a2a2a" stroke="#353535"></path><path d="M229.8 600L237.8 569.8L178.1 600Z" fill="#2a2a2a" stroke="#353535"></path><path d="M269.8 0L250.2 22.2L282.8 32.2Z" fill="#2a2a2a" stroke="#353535"></path><path d="M282.8 32.2L250.2 22.2L263.8 92.5Z" fill="#2a2a2a" stroke="#353535"></path><path d="M197.5 96.5L166.5 79.3L169.1 135.5Z" fill="#2a2a2a" stroke="#353535"></path><path d="M347.6 0L269.8 0L282.8 32.2Z" fill="#2a2a2a" stroke="#353535"></path><path d="M182.5 0L217.5 44.2L250.2 22.2Z" fill="#2a2a2a" stroke="#353535"></path><path d="M250.2 22.2L217.5 44.2L263.8 92.5Z" fill="#2a2a2a" stroke="#353535"></path><path d="M120.1 368.2L129.1 406.4L134.7 382.2Z" fill="#2a2a2a" stroke="#353535"></path><path d="M134.1 247.8L115.1 318.9L159.1 280.1Z" fill="#2a2a2a" stroke="#353535"></path><path d="M120.1 368.2L134.7 382.2L133.7 368.1Z" fill="#2a2a2a" stroke="#353535"></path><path d="M134.7 382.2L129.1 406.4L198.8 439.5Z" fill="#2a2a2a" stroke="#353535"></path><path d="M109.7 322.9L120.1 368.2L133.7 368.1Z" fill="#2a2a2a" stroke="#353535"></path><path d="M900 256.8L818.6 234.9L820.3 271.8Z" fill="#2a2a2a" stroke="#353535"></path><path d="M815.3 58.2L750.5 98.5L771.3 111.5Z" fill="#2a2a2a" stroke="#353535"></path><path d="M895.6 304.1L820.3 271.8L832.6 331.2Z" fill="#2a2a2a" stroke="#353535"></path><path d="M229.8 600L254.2 600L237.8 569.8Z" fill="#2a2a2a" stroke="#353535"></path><path d="M237.8 569.8L254.2 600L281.2 549.7Z" fill="#2a2a2a" stroke="#353535"></path><path d="M85.4 259.9L115.1 318.9L134.1 247.8Z" fill="#2a2a2a" stroke="#353535"></path><path d="M85.4 259.9L109.7 322.9L115.1 318.9Z" fill="#2a2a2a" stroke="#353535"></path><path d="M115.1 318.9L109.7 322.9L133.7 368.1Z" fill="#2a2a2a" stroke="#353535"></path><path d="M123.7 425.4L151.5 476.5L182.5 448.4Z" fill="#2a2a2a" stroke="#353535"></path><path d="M269.8 0L252.2 0L250.2 22.2Z" fill="#2a2a2a" stroke="#353535"></path><path d="M129.1 406.4L123.7 425.4L182.5 448.4Z" fill="#2a2a2a" stroke="#353535"></path><path d="M89.7 440.5L123.7 425.4L129.1 406.4Z" fill="#2a2a2a" stroke="#353535"></path><path d="M89.7 440.5L129.1 406.4L120.1 368.2Z" fill="#2a2a2a" stroke="#353535"></path><path d="M779.9 31.2L750.5 98.5L815.3 58.2Z" fill="#2a2a2a" stroke="#353535"></path><path d="M169.1 135.5L108.7 179.5L156.1 165.6Z" fill="#2a2a2a" stroke="#353535"></path><path d="M156.1 165.6L108.7 179.5L153.5 209.6Z" fill="#2a2a2a" stroke="#353535"></path><path d="M217.5 44.2L166.5 79.3L197.5 96.5Z" fill="#2a2a2a" stroke="#353535"></path><path d="M149.1 86.3L166.5 79.3L164.1 30.2Z" fill="#2a2a2a" stroke="#353535"></path><path d="M152.1 562.8L237.8 569.8L217.5 517.8Z" fill="#2a2a2a" stroke="#353535"></path><path d="M844.6 114.5L790.9 173.6L831.3 181.6Z" fill="#2a2a2a" stroke="#353535"></path><path d="M620.2 600L753.9 600L675.5 547.7Z" fill="#2a2a2a" stroke="#353535"></path><path d="M739.9 527.8L754.5 600L765.3 510.8Z" fill="#2a2a2a" stroke="#353535"></path><path d="M753.9 600L754.5 600L739.9 527.8Z" fill="#2a2a2a" stroke="#353535"></path><path d="M149.1 86.3L108.7 179.5L169.1 135.5Z" fill="#2a2a2a" stroke="#353535"></path><path d="M900 175.6L844.6 114.5L831.3 181.6Z" fill="#2a2a2a" stroke="#353535"></path><path d="M164.1 30.2L166.5 79.3L217.5 44.2Z" fill="#2a2a2a" stroke="#353535"></path><path d="M166.5 79.3L149.1 86.3L169.1 135.5Z" fill="#2a2a2a" stroke="#353535"></path><path d="M123.7 425.4L131.1 491.5L151.5 476.5Z" fill="#2a2a2a" stroke="#353535"></path><path d="M151.5 476.5L152.1 562.8L217.5 517.8Z" fill="#2a2a2a" stroke="#353535"></path><path d="M89.7 440.5L131.1 491.5L123.7 425.4Z" fill="#2a2a2a" stroke="#353535"></path><path d="M66.7 208.6L85.4 259.9L134.1 247.8Z" fill="#2a2a2a" stroke="#353535"></path><path d="M16.4 403.4L89.7 440.5L120.1 368.2Z" fill="#2a2a2a" stroke="#353535"></path><path d="M900 357.1L832.6 331.2L832.3 371.4Z" fill="#2a2a2a" stroke="#353535"></path><path d="M900 357.1L895.6 304.1L832.6 331.2Z" fill="#2a2a2a" stroke="#353535"></path><path d="M900 107.5L856.6 89.2L844.6 114.5Z" fill="#2a2a2a" stroke="#353535"></path><path d="M900 357.1L832.3 371.4L900 372.2Z" fill="#2a2a2a" stroke="#353535"></path><path d="M900 297.9L895.6 304.1L900 357.1Z" fill="#2a2a2a" stroke="#353535"></path><path d="M844.6 114.5L815.3 58.2L771.3 111.5Z" fill="#2a2a2a" stroke="#353535"></path><path d="M832.3 371.4L900 437.4L900 372.2Z" fill="#2a2a2a" stroke="#353535"></path><path d="M895.6 304.1L900 256.8L820.3 271.8Z" fill="#2a2a2a" stroke="#353535"></path><path d="M900 297.9L900 256.8L895.6 304.1Z" fill="#2a2a2a" stroke="#353535"></path><path d="M832.3 371.4L815.6 426.5L900 437.4Z" fill="#2a2a2a" stroke="#353535"></path><path d="M900 437.4L815.6 426.5L900 441.5Z" fill="#2a2a2a" stroke="#353535"></path><path d="M813.3 600L833.3 543.7L765.3 510.8Z" fill="#2a2a2a" stroke="#353535"></path><path d="M56.7 476.7L89.7 440.5L16.4 403.4Z" fill="#2a2a2a" stroke="#353535"></path><path d="M149.1 86.3L81.4 168.5L108.7 179.5Z" fill="#2a2a2a" stroke="#353535"></path><path d="M182.5 0L164.1 30.2L217.5 44.2Z" fill="#2a2a2a" stroke="#353535"></path><path d="M844.6 114.5L856.6 89.2L815.3 58.2Z" fill="#2a2a2a" stroke="#353535"></path><path d="M815.3 58.2L801.3 0L779.9 31.2Z" fill="#2a2a2a" stroke="#353535"></path><path d="M900 175.6L831.3 181.6L852.6 195.6Z" fill="#2a2a2a" stroke="#353535"></path><path d="M132.1 553.7L152.1 562.8L131.1 491.5Z" fill="#2a2a2a" stroke="#353535"></path><path d="M131.1 491.5L152.1 562.8L151.5 476.5Z" fill="#2a2a2a" stroke="#353535"></path><path d="M72.4 168.6L81.4 168.5L60.7 93.3Z" fill="#2a2a2a" stroke="#353535"></path><path d="M108.7 179.5L66.7 208.6L134.1 247.8Z" fill="#2a2a2a" stroke="#353535"></path><path d="M16.4 403.4L120.1 368.2L8.4 386.2Z" fill="#2a2a2a" stroke="#353535"></path><path d="M900 256.8L900 175.6L852.6 195.6Z" fill="#2a2a2a" stroke="#353535"></path><path d="M252.2 0L182.5 0L250.2 22.2Z" fill="#2a2a2a" stroke="#353535"></path><path d="M152.1 562.8L178.1 600L237.8 569.8Z" fill="#2a2a2a" stroke="#353535"></path><path d="M81.4 168.5L66.7 208.6L108.7 179.5Z" fill="#2a2a2a" stroke="#353535"></path><path d="M900 441.5L815.6 426.5L878.6 501.7Z" fill="#2a2a2a" stroke="#353535"></path><path d="M895.6 0L801.3 0L815.3 58.2Z" fill="#2a2a2a" stroke="#353535"></path><path d="M779.9 31.2L801.3 0L736.9 0Z" fill="#2a2a2a" stroke="#353535"></path><path d="M878.6 501.7L815.6 426.5L794.9 493.5Z" fill="#2a2a2a" stroke="#353535"></path><path d="M813.3 600L839.6 561.8L833.3 543.7Z" fill="#2a2a2a" stroke="#353535"></path><path d="M833.3 543.7L878.6 501.7L794.9 493.5Z" fill="#2a2a2a" stroke="#353535"></path><path d="M85.4 541.7L132.1 553.7L131.1 491.5Z" fill="#2a2a2a" stroke="#353535"></path><path d="M152.1 562.8L147.5 600L178.1 600Z" fill="#2a2a2a" stroke="#353535"></path><path d="M60.7 93.3L81.4 168.5L149.1 86.3Z" fill="#2a2a2a" stroke="#353535"></path><path d="M81.4 168.5L72.4 168.6L66.7 208.6Z" fill="#2a2a2a" stroke="#353535"></path><path d="M124.1 0L149.1 86.3L164.1 30.2Z" fill="#2a2a2a" stroke="#353535"></path><path d="M839.6 561.8L878.6 501.7L833.3 543.7Z" fill="#2a2a2a" stroke="#353535"></path><path d="M900 107.5L867.6 79.3L856.6 89.2Z" fill="#2a2a2a" stroke="#353535"></path><path d="M856.6 89.2L867.6 79.3L815.3 58.2Z" fill="#2a2a2a" stroke="#353535"></path><path d="M754.5 600L813.3 600L765.3 510.8Z" fill="#2a2a2a" stroke="#353535"></path><path d="M813.3 600L817.6 600L839.6 561.8Z" fill="#2a2a2a" stroke="#353535"></path><path d="M839.6 561.8L900 506.7L878.6 501.7Z" fill="#2a2a2a" stroke="#353535"></path><path d="M72.4 168.6L55.7 199.8L66.7 208.6Z" fill="#2a2a2a" stroke="#353535"></path><path d="M66.7 208.6L19.4 287.1L85.4 259.9Z" fill="#2a2a2a" stroke="#353535"></path><path d="M136.7 600L152.1 562.8L132.1 553.7Z" fill="#2a2a2a" stroke="#353535"></path><path d="M136.7 600L147.5 600L152.1 562.8Z" fill="#2a2a2a" stroke="#353535"></path><path d="M900 175.6L900 107.5L844.6 114.5Z" fill="#2a2a2a" stroke="#353535"></path><path d="M867.6 79.3L895.6 0L815.3 58.2Z" fill="#2a2a2a" stroke="#353535"></path><path d="M900 591.8L900 506.7L839.6 561.8Z" fill="#2a2a2a" stroke="#353535"></path><path d="M878.6 501.7L900 506.7L900 441.5Z" fill="#2a2a2a" stroke="#353535"></path><path d="M64.4 600L136.7 600L132.1 553.7Z" fill="#2a2a2a" stroke="#353535"></path><path d="M19.4 287.1L109.7 322.9L85.4 259.9Z" fill="#2a2a2a" stroke="#353535"></path><path d="M89.7 440.5L56.7 476.7L131.1 491.5Z" fill="#2a2a2a" stroke="#353535"></path><path d="M900 107.5L900 75.2L867.6 79.3Z" fill="#2a2a2a" stroke="#353535"></path><path d="M70.7 516.8L85.4 541.7L131.1 491.5Z" fill="#2a2a2a" stroke="#353535"></path><path d="M0 220.6L19.4 287.1L66.7 208.6Z" fill="#2a2a2a" stroke="#353535"></path><path d="M56.7 476.7L70.7 516.8L131.1 491.5Z" fill="#2a2a2a" stroke="#353535"></path><path d="M900 75.2L900 71.3L867.6 79.3Z" fill="#2a2a2a" stroke="#353535"></path><path d="M182.5 0L124.1 0L164.1 30.2Z" fill="#2a2a2a" stroke="#353535"></path><path d="M72.4 168.6L25.4 190.8L55.7 199.8Z" fill="#2a2a2a" stroke="#353535"></path><path d="M0 220.6L0 278.9L19.4 287.1Z" fill="#2a2a2a" stroke="#353535"></path><path d="M77.7 16.2L60.7 93.3L149.1 86.3Z" fill="#2a2a2a" stroke="#353535"></path><path d="M0 107.5L25.4 190.8L72.4 168.6Z" fill="#2a2a2a" stroke="#353535"></path><path d="M0 520.8L59.4 512.8L56.7 476.7Z" fill="#2a2a2a" stroke="#353535"></path><path d="M56.7 476.7L59.4 512.8L70.7 516.8Z" fill="#2a2a2a" stroke="#353535"></path><path d="M70.7 516.8L59.4 512.8L85.4 541.7Z" fill="#2a2a2a" stroke="#353535"></path><path d="M85.4 541.7L64.4 600L132.1 553.7Z" fill="#2a2a2a" stroke="#353535"></path><path d="M8.4 386.2L120.1 368.2L109.7 322.9Z" fill="#2a2a2a" stroke="#353535"></path><path d="M0 345.2L8.4 386.2L109.7 322.9Z" fill="#2a2a2a" stroke="#353535"></path><path d="M16.4 403.4L0.4 438.5L56.7 476.7Z" fill="#2a2a2a" stroke="#353535"></path><path d="M0 333.1L109.7 322.9L19.4 287.1Z" fill="#2a2a2a" stroke="#353535"></path><path d="M0 220.6L66.7 208.6L55.7 199.8Z" fill="#2a2a2a" stroke="#353535"></path><path d="M0 278.9L0 333.1L19.4 287.1Z" fill="#2a2a2a" stroke="#353535"></path><path d="M0 333.1L0 345.2L109.7 322.9Z" fill="#2a2a2a" stroke="#353535"></path><path d="M0 345.2L0 378.4L8.4 386.2Z" fill="#2a2a2a" stroke="#353535"></path><path d="M8.4 386.2L0 433.5L16.4 403.4Z" fill="#2a2a2a" stroke="#353535"></path><path d="M25.4 190.8L0 220.6L55.7 199.8Z" fill="#2a2a2a" stroke="#353535"></path><path d="M0 197.8L0 220.6L25.4 190.8Z" fill="#2a2a2a" stroke="#353535"></path><path d="M0 107.5L0 197.8L25.4 190.8Z" fill="#2a2a2a" stroke="#353535"></path><path d="M124.1 0L77.7 16.2L149.1 86.3Z" fill="#2a2a2a" stroke="#353535"></path><path d="M60.7 93.3L0 107.5L72.4 168.6Z" fill="#2a2a2a" stroke="#353535"></path><path d="M900 600L900 591.8L839.6 561.8Z" fill="#2a2a2a" stroke="#353535"></path><path d="M900 71.3L895.6 0L867.6 79.3Z" fill="#2a2a2a" stroke="#353535"></path><path d="M0 378.4L0 433.5L8.4 386.2Z" fill="#2a2a2a" stroke="#353535"></path><path d="M0 433.5L0.4 438.5L16.4 403.4Z" fill="#2a2a2a" stroke="#353535"></path><path d="M817.6 600L900 600L839.6 561.8Z" fill="#2a2a2a" stroke="#353535"></path><path d="M900 71.3L900 0L895.6 0Z" fill="#2a2a2a" stroke="#353535"></path><path d="M124.1 0L74.7 0L77.7 16.2Z" fill="#2a2a2a" stroke="#353535"></path><path d="M77.7 16.2L20.4 69.2L60.7 93.3Z" fill="#2a2a2a" stroke="#353535"></path><path d="M0 544.7L85.4 541.7L59.4 512.8Z" fill="#2a2a2a" stroke="#353535"></path><path d="M0 544.7L64.4 600L85.4 541.7Z" fill="#2a2a2a" stroke="#353535"></path><path d="M16.4 68.3L20.4 69.2L0.4 0Z" fill="#2a2a2a" stroke="#353535"></path><path d="M0 96.3L0 107.5L60.7 93.3Z" fill="#2a2a2a" stroke="#353535"></path><path d="M0.4 0L20.4 69.2L77.7 16.2Z" fill="#2a2a2a" stroke="#353535"></path><path d="M20.4 69.2L0 96.3L60.7 93.3Z" fill="#2a2a2a" stroke="#353535"></path><path d="M16.4 68.3L0 96.3L20.4 69.2Z" fill="#2a2a2a" stroke="#353535"></path><path d="M0.4 438.5L0 520.8L56.7 476.7Z" fill="#2a2a2a" stroke="#353535"></path><path d="M0 433.5L0 520.8L0.4 438.5Z" fill="#2a2a2a" stroke="#353535"></path><path d="M0.4 0L0 69.2L16.4 68.3Z" fill="#2a2a2a" stroke="#353535"></path><path d="M16.4 68.3L0 69.2L0 96.3Z" fill="#2a2a2a" stroke="#353535"></path><path d="M0 520.8L0 544.7L59.4 512.8Z" fill="#2a2a2a" stroke="#353535"></path><path d="M0 544.7L0 600L64.4 600Z" fill="#2a2a2a" stroke="#353535"></path><path d="M74.7 0L0.4 0L77.7 16.2Z" fill="#2a2a2a" stroke="#353535"></path><path d="M0.4 0L0 0L0 69.2Z" fill="#2a2a2a" stroke="#353535"></path></g></svg>